<svg width="64" height="64" viewBox="0 0 64 64" fill="none" xmlns="http://www.w3.org/2000/svg">
<circle cx="32" cy="32" r="32" fill="url(#paint0_linear_1242_2475)"/>
<circle cx="32" cy="32" r="26" stroke="white" stroke-width="2"/>
<path d="M39.1247 20.6335L33.8794 25.8787L34.5865 29.4143L38.1221 30.1214L43.3673 24.8762L43.3678 24.8759C44.017 26.4085 44.1723 28.1053 43.812 29.7302C43.4517 31.3551 42.5938 32.8273 41.3576 33.9418C40.1215 35.0563 38.5686 35.7576 36.9151 35.9482C35.2617 36.1388 33.59 35.8091 32.1327 35.0051L32.1328 35.0049L25.1221 43.1214C24.5593 43.6835 23.7965 43.9991 23.0011 43.9989C22.2057 43.9986 21.443 43.6826 20.8806 43.1202C20.3182 42.5578 20.0022 41.7951 20.002 40.9997C20.0017 40.2044 20.3173 39.4415 20.8794 38.8787L28.9958 31.8681L28.9957 31.8682C28.1917 30.4108 27.862 28.7391 28.0526 27.0857C28.2432 25.4323 28.9446 23.8794 30.059 22.6432C31.1735 21.407 32.6457 20.5491 34.2706 20.1888C35.8955 19.8285 37.5923 19.9838 39.1249 20.633L39.1247 20.6335Z" stroke="white" stroke-width="2" stroke-linecap="round" stroke-linejoin="round"/>
<defs>
<linearGradient id="paint0_linear_1242_2475" x1="4" y1="3" x2="56" y2="60.5" gradientUnits="userSpaceOnUse">
<stop offset="0.181933" stop-color="#DA121A"/>
<stop offset="1" stop-color="#0E78C0"/>
</linearGradient>
</defs>
</svg>
