<svg width="64" height="64" viewBox="0 0 64 64" fill="none" xmlns="http://www.w3.org/2000/svg">
<circle cx="32" cy="32" r="32" fill="url(#paint0_linear_1242_2440)"/>
<path d="M21 30.3333V23C21 22.7348 21.1054 22.4804 21.2929 22.2929C21.4804 22.1054 21.7348 22 22 22H42C42.2652 22 42.5196 22.1054 42.7071 22.2929C42.8946 22.4804 43 22.7348 43 23V30.3333C43 40.8352 34.0868 44.3146 32.307 44.9047C32.1081 44.9731 31.8919 44.9731 31.693 44.9047C29.9133 44.3146 21 40.8352 21 30.3333Z" stroke="white" stroke-width="2" stroke-linecap="round" stroke-linejoin="round"/>
<path d="M37.5 29L30.1666 36L26.5 32.5" stroke="white" stroke-width="2" stroke-linecap="round" stroke-linejoin="round"/>
<circle cx="32" cy="32" r="26" stroke="white" stroke-width="2"/>
<defs>
<linearGradient id="paint0_linear_1242_2440" x1="4" y1="3" x2="56" y2="60.5" gradientUnits="userSpaceOnUse">
<stop offset="0.181933" stop-color="#DA121A"/>
<stop offset="1" stop-color="#0E78C0"/>
</linearGradient>
</defs>
</svg>
