<svg width="16" height="16" viewBox="0 0 16 16" fill="none" xmlns="http://www.w3.org/2000/svg">
<path d="M11.1257 2.48486C10.4021 2.48486 9.7388 2.70915 9.15411 3.15152C8.59357 3.57562 8.22036 4.11579 8.00065 4.50857C7.78094 4.11576 7.40773 3.57562 6.84719 3.15152C6.2625 2.70915 5.59917 2.48486 4.87565 2.48486C2.85659 2.48486 1.33398 4.10048 1.33398 6.24293C1.33398 8.55753 3.23354 10.1411 6.10922 12.5385C6.59755 12.9456 7.15107 13.4071 7.72638 13.8993C7.80221 13.9642 7.89961 14 8.00065 14C8.10169 14 8.19909 13.9642 8.27492 13.8993C8.85029 13.4071 9.40378 12.9456 9.8924 12.5383C12.7678 10.1411 14.6673 8.55753 14.6673 6.24293C14.6673 4.10048 13.1447 2.48486 11.1257 2.48486Z" fill="#F01C24"/>
<path d="M9.15411 3.15152L9.75747 3.94899L9.75747 3.94899L9.15411 3.15152ZM8.00065 4.50857L7.1279 4.99673C7.30467 5.31279 7.63851 5.50857 8.00064 5.50857C8.36277 5.50858 8.69661 5.3128 8.87339 4.99676L8.00065 4.50857ZM6.84719 3.15152L6.24383 3.94899L6.24383 3.94899L6.84719 3.15152ZM6.10922 12.5385L6.74958 11.7704L6.74956 11.7704L6.10922 12.5385ZM7.72638 13.8993L8.37696 13.1398L8.37644 13.1394L7.72638 13.8993ZM8.27492 13.8993L7.62483 13.1395L7.62449 13.1397L8.27492 13.8993ZM9.8924 12.5383L9.25206 11.7702L9.25205 11.7702L9.8924 12.5383ZM11.1257 1.48486C10.1812 1.48486 9.30665 1.78215 8.55076 2.35405L9.75747 3.94899C10.171 3.63615 10.6231 3.48486 11.1257 3.48486V1.48486ZM8.55076 2.35405C7.84163 2.89056 7.38677 3.55762 7.12791 4.02039L8.87339 4.99676C9.05396 4.67396 9.3455 4.26068 9.75747 3.94899L8.55076 2.35405ZM8.87341 4.02042C8.61453 3.55758 8.15966 2.89055 7.45054 2.35405L6.24383 3.94899C6.65581 4.26068 6.94735 4.67394 7.1279 4.99673L8.87341 4.02042ZM7.45054 2.35405C6.69465 1.78215 5.82008 1.48486 4.87565 1.48486V3.48486C5.37825 3.48486 5.83035 3.63615 6.24383 3.94899L7.45054 2.35405ZM4.87565 1.48486C2.24926 1.48486 0.333984 3.60489 0.333984 6.24293H2.33398C2.33398 4.59606 3.46392 3.48486 4.87565 3.48486V1.48486ZM0.333984 6.24293C0.333984 7.7149 0.952185 8.91058 1.88021 10.0061C2.78299 11.0717 4.0545 12.1275 5.46888 13.3066L6.74956 11.7704C5.28826 10.5522 4.17216 9.61742 3.40624 8.7133C2.66556 7.83898 2.33398 7.08556 2.33398 6.24293H0.333984ZM5.46886 13.3066C5.95768 13.7141 6.50652 14.1717 7.07632 14.6592L8.37644 13.1394C7.79561 12.6425 7.23743 12.1772 6.74958 11.7704L5.46886 13.3066ZM7.0758 14.6587C7.33522 14.881 7.66413 15 8.00065 15V13C8.13509 13 8.26921 13.0475 8.37696 13.1398L7.0758 14.6587ZM8.00065 15C8.33716 15 8.666 14.881 8.92536 14.6589L7.62449 13.1397C7.73218 13.0475 7.86623 13 8.00065 13V15ZM8.92501 14.6592C9.49484 14.1717 10.0436 13.7141 10.5327 13.3063L9.25205 11.7702C8.76391 12.1771 8.20573 12.6425 7.62483 13.1395L8.92501 14.6592ZM10.5327 13.3063C11.947 12.1273 13.2184 11.0717 14.1211 10.006C15.0491 8.91058 15.6673 7.71489 15.6673 6.24293H13.6673C13.6673 7.08557 13.3357 7.83898 12.5951 8.71327C11.8292 9.61736 10.7132 10.552 9.25206 11.7702L10.5327 13.3063ZM15.6673 6.24293C15.6673 3.60489 13.752 1.48486 11.1257 1.48486V3.48486C12.5374 3.48486 13.6673 4.59606 13.6673 6.24293H15.6673Z" fill="#F01C24"/>
</svg>
