<svg width="24" height="24" viewBox="0 0 24 24" fill="none" xmlns="http://www.w3.org/2000/svg">
<path d="M19.6184 13.3164C19.5692 13.2562 19.5425 13.1815 19.5428 13.1047V10.8953C19.5425 10.8185 19.5692 10.7438 19.6184 10.6836L20.6703 9.4065C20.8596 9.17697 20.973 8.89746 20.9958 8.6045C21.0185 8.31153 20.9495 8.01873 20.7978 7.76436L20.1843 6.73564C20.033 6.48105 19.8059 6.27659 19.5328 6.149C19.2596 6.0214 18.9531 5.97659 18.6533 6.02043L16.9865 6.26607C16.9077 6.27679 16.8274 6.262 16.7582 6.224L14.7832 5.11929C14.7136 5.07876 14.6603 5.01656 14.6319 4.94286L14.017 3.42829C13.9069 3.15506 13.7143 2.92034 13.4645 2.75474C13.2146 2.58915 12.919 2.50037 12.6163 2.5H11.3865C11.0838 2.50037 10.7882 2.58915 10.5383 2.75474C10.2885 2.92034 10.0959 3.15506 9.98579 3.42829L9.36809 4.94286C9.33866 5.01455 9.28543 5.07471 9.21681 5.11386L7.23762 6.224C7.16841 6.2621 7.08812 6.27689 7.00931 6.26607L5.34668 6.02043C5.04685 5.97659 4.74035 6.0214 4.46722 6.149C4.19409 6.27659 3.96703 6.48105 3.81572 6.73564L3.20221 7.76436C3.0505 8.01873 2.98151 8.31153 3.00425 8.6045C3.02699 8.89746 3.1404 9.17697 3.32967 9.4065L4.3816 10.6836C4.43082 10.7438 4.45749 10.8185 4.45724 10.8953V13.1047C4.45749 13.1815 4.43082 13.2562 4.3816 13.3164L3.32967 14.5935C3.1404 14.823 3.02699 15.1025 3.00425 15.3955C2.98151 15.6885 3.0505 15.9813 3.20221 16.2356L3.81572 17.2644C3.96703 17.519 4.19409 17.7234 4.46722 17.851C4.74035 17.9786 5.04685 18.0234 5.34668 17.9796L7.01351 17.7339C7.09232 17.7231 7.17261 17.7379 7.24183 17.776L9.21681 18.8807C9.28543 18.9199 9.33866 18.98 9.36809 19.0517L9.98299 20.5717C10.0931 20.8449 10.2857 21.0797 10.5355 21.2453C10.7854 21.4108 11.081 21.4996 11.3837 21.5H12.6107C12.9134 21.4996 13.209 21.4108 13.4589 21.2453C13.7087 21.0797 13.9013 20.8449 14.0114 20.5717L14.6263 19.0517C14.6557 18.98 14.709 18.9199 14.7776 18.8807L16.7526 17.776C16.8218 17.738 16.9021 17.7232 16.9809 17.7339L18.6477 17.9796C18.9475 18.0234 19.254 17.9786 19.5272 17.851C19.8003 17.7234 20.0274 17.519 20.1787 17.2644L20.7922 16.2356C20.9439 15.9813 21.0129 15.6885 20.9902 15.3955C20.9674 15.1025 20.854 14.823 20.6647 14.5935L19.6184 13.3164Z" stroke="#848484" stroke-width="2" stroke-linejoin="round"/>
<circle cx="12" cy="12" r="3.5" stroke="#848484" stroke-width="2"/>
</svg>
