<svg width="32" height="32" viewBox="0 0 32 32" fill="none" xmlns="http://www.w3.org/2000/svg">
<g clip-path="url(#clip0_1234_1201)">
<path d="M27.1685 -0.000244141H4.83061C2.16165 -0.000244141 -0.00195312 2.16336 -0.00195312 4.83232V27.1676C-0.00195312 29.8366 2.16165 32 4.83061 32H27.1684C29.8373 32 32.0009 29.8364 32.0009 27.1676V4.83245C32.0011 2.16349 29.8373 -0.000244141 27.1685 -0.000244141Z" fill="#A8EBFF"/>
<path d="M23.546 1.3678H8.45351C4.45858 1.3678 1.24219 4.61021 1.24219 8.63768V23.3622C1.37156 26.5061 1.86902 24.5185 2.81573 21.037C3.91618 16.9907 7.49972 13.4543 11.8641 10.8039C15.1952 8.78094 18.9236 7.48915 25.7106 7.36618C29.5597 7.2966 29.2199 2.37075 23.546 1.3678Z" fill="url(#paint0_linear_1234_1201)"/>
<path d="M16.7259 10.2518C16.7259 13.7086 13.8929 16.511 10.3981 16.511C6.90337 16.511 4.07031 13.7086 4.07031 10.2518C4.07031 6.79508 6.90337 3.9928 10.3981 3.9928C13.8929 3.9928 16.7259 6.79508 16.7259 10.2518Z" fill="#00C3FF"/>
<path d="M26.9077 20.9128C26.9077 24.3696 24.0745 27.1719 20.5799 27.1719C17.085 27.1719 14.252 24.3696 14.252 20.9128C14.252 17.456 17.085 14.6538 20.5799 14.6538C24.0745 14.6538 26.9077 17.456 26.9077 20.9128Z" fill="#00C3FF"/>
<path d="M26.4944 15.4103C26.4944 21.5641 21.6289 26.5527 15.6271 26.5527C9.62528 26.5527 4.75977 21.5641 4.75977 15.4103C4.75977 9.25657 9.62528 4.26794 15.6271 4.26794C21.6289 4.26794 26.4944 9.25657 26.4944 15.4103Z" fill="#00C3FF"/>
<path fill-rule="evenodd" clip-rule="evenodd" d="M12.47 8.11604C13.5209 7.52986 14.7506 7.32997 15.7734 7.38075L15.8366 7.38388L15.8993 7.39211C17.9601 7.66226 19.7365 8.52225 21.2226 10.0563C21.8244 10.6775 21.8086 11.6689 21.1874 12.2707C20.5662 12.8725 19.5747 12.8568 18.9729 12.2356C18.0099 11.2414 16.9099 10.6964 15.5584 10.5066C15.0191 10.4904 14.4242 10.6124 13.9958 10.8514C13.6014 11.0714 13.4347 11.3241 13.4066 11.6633C13.3868 12.027 13.4334 12.2312 13.4785 12.3457C13.5187 12.4478 13.5839 12.5478 13.7294 12.6659C14.0958 12.9632 14.8096 13.2595 16.2187 13.6172L16.2239 13.6186L16.2291 13.6199C16.3669 13.6559 16.5106 13.6925 16.6587 13.7302C17.6738 13.9886 18.8952 14.2996 19.8367 14.8332C20.4207 15.1642 21.0012 15.6309 21.4095 16.3151C21.8213 17.0049 21.9845 17.7925 21.9377 18.6404C21.8887 20.2861 21.0296 21.5138 19.8264 22.2541C18.6792 22.96 17.2608 23.2111 15.9178 23.1656L15.9085 23.1653L15.8992 23.1649C13.0796 23.0357 11.2548 21.584 10.1958 20.2241C9.66436 19.5417 9.78675 18.5577 10.4691 18.0263C11.1515 17.4949 12.1355 17.6173 12.6669 18.2997C13.3111 19.1269 14.351 19.9557 16.0332 20.0356C16.9612 20.0656 17.7145 19.8761 18.1851 19.5865C18.5943 19.3347 18.7956 19.0207 18.8072 18.5366L18.8079 18.5079L18.8096 18.4792C18.83 18.1435 18.7634 17.9929 18.7201 17.9204C18.6688 17.8345 18.559 17.7092 18.2923 17.5581C17.7437 17.2472 16.9828 17.0504 15.8948 16.769C15.75 16.7316 15.5994 16.6926 15.4427 16.6517C14.0557 16.2993 12.7146 15.876 11.7559 15.098C11.2382 14.6779 10.8229 14.1506 10.564 13.4928C10.3105 12.8486 10.2399 12.1638 10.2806 11.4673L10.2813 11.4552L10.2822 11.4431C10.4023 9.81798 11.3734 8.72775 12.47 8.11604Z" fill="white"/>
</g>
<defs>
<linearGradient id="paint0_linear_1234_1201" x1="8.13792" y1="-4.70419" x2="12.302" y2="7.43373" gradientUnits="userSpaceOnUse">
<stop stop-color="white"/>
<stop offset="1" stop-color="white" stop-opacity="0"/>
</linearGradient>
<clipPath id="clip0_1234_1201">
<rect width="32" height="32" fill="white"/>
</clipPath>
</defs>
</svg>
