<svg width="32" height="32" viewBox="0 0 32 32" fill="none" xmlns="http://www.w3.org/2000/svg">
<circle cx="16" cy="16" r="16" fill="#00ADE2"/>
<path d="M11.2501 17.6443L19.6799 25.0625C19.7774 25.1484 19.8956 25.2074 20.0228 25.2338C20.15 25.2602 20.2819 25.2532 20.4055 25.2133C20.5292 25.1734 20.6403 25.1021 20.7281 25.0063C20.8159 24.9106 20.8774 24.7937 20.9064 24.667L24.4327 9.27959C24.4632 9.14655 24.4568 9.00771 24.4142 8.87804C24.3716 8.74837 24.2944 8.63277 24.191 8.54371C24.0876 8.45466 23.9618 8.39551 23.8272 8.37265C23.6927 8.3498 23.5544 8.36409 23.4274 8.414L6.12517 15.2113C5.97438 15.2705 5.84683 15.377 5.76159 15.5148C5.67636 15.6526 5.63803 15.8142 5.65235 15.9756C5.66666 16.137 5.73285 16.2894 5.841 16.41C5.94915 16.5307 6.09346 16.613 6.25233 16.6448L11.2501 17.6443Z" stroke="white" stroke-width="1.5" stroke-linecap="round" stroke-linejoin="round"/>
<path d="M11.25 17.6442L24.0105 8.42822" stroke="white" stroke-width="1.5" stroke-linecap="round" stroke-linejoin="round"/>
<path d="M15.46 21.3491L12.5303 24.2788C12.4254 24.3837 12.2918 24.4551 12.1463 24.4841C12.0008 24.513 11.85 24.4982 11.713 24.4414C11.5759 24.3846 11.4588 24.2885 11.3764 24.1652C11.294 24.0418 11.25 23.8968 11.25 23.7485V17.6443" stroke="white" stroke-width="1.5" stroke-linecap="round" stroke-linejoin="round"/>
</svg>
