<svg width="32" height="32" viewBox="0 0 32 32" fill="none" xmlns="http://www.w3.org/2000/svg">
<circle cx="16" cy="16" r="16" fill="#6A6CB7"/>
<path d="M19.9227 14.6036C19.8129 14.6036 19.7073 14.5605 19.6277 14.4831C19.5481 14.4058 19.5007 14.3001 19.4952 14.1881C19.4231 12.6999 18.7385 11.9721 17.3403 11.8979C17.284 11.895 17.2288 11.8808 17.1779 11.8561C17.127 11.8314 17.0813 11.7967 17.0436 11.754C17.0058 11.7112 16.9766 11.6613 16.9578 11.607C16.9389 11.5527 16.9307 11.4952 16.9337 11.4376C16.9365 11.3801 16.9504 11.3237 16.9745 11.2717C16.9987 11.2196 17.0326 11.173 17.0745 11.1344C17.1163 11.0958 17.1652 11.066 17.2183 11.0467C17.2714 11.0274 17.3277 11.0191 17.384 11.0221C19.2299 11.1208 20.2556 12.2002 20.3501 14.1434C20.3529 14.2008 20.3446 14.2583 20.3257 14.3124C20.3068 14.3666 20.2776 14.4164 20.2399 14.459C20.2021 14.5017 20.1565 14.5363 20.1057 14.5609C20.0548 14.5856 19.9997 14.5997 19.9435 14.6026L19.9227 14.6036Z" fill="white"/>
<path d="M22.1214 15.356H22.1123C22.056 15.3548 22.0005 15.3422 21.949 15.3191C21.8975 15.2959 21.8509 15.2627 21.812 15.2211C21.773 15.1796 21.7425 15.1306 21.7221 15.077C21.7016 15.0234 21.6918 14.9662 21.693 14.9087C21.725 13.4117 21.3067 12.1999 20.4142 11.2036C19.5217 10.2073 18.302 9.6671 16.6812 9.54607C16.5681 9.53756 16.4629 9.48357 16.3887 9.39594C16.3145 9.30831 16.2773 9.19419 16.2852 9.07858C16.2936 8.96299 16.3464 8.8555 16.4321 8.77965C16.5179 8.7038 16.6295 8.66579 16.7427 8.67394C18.5657 8.81055 20.0132 9.46296 21.045 10.614C22.0767 11.7651 22.5844 13.22 22.5483 14.929C22.5454 15.0429 22.4992 15.1512 22.4196 15.2309C22.3399 15.3106 22.2329 15.3555 22.1214 15.356Z" fill="white"/>
<path d="M24.3723 16.2542C24.2591 16.2542 24.1506 16.2085 24.0704 16.1271C23.9901 16.0456 23.9446 15.9351 23.9438 15.8195C23.924 13.1776 23.1484 11.0749 21.6384 9.57064C20.1284 8.06635 18.2128 7.29031 15.9547 7.27421C15.8984 7.2738 15.8428 7.26207 15.791 7.23969C15.7391 7.2173 15.6921 7.1847 15.6526 7.14375C15.6131 7.1028 15.5819 7.0543 15.5608 7.00102C15.5396 6.94773 15.5289 6.89071 15.5293 6.83321C15.5301 6.71761 15.5756 6.60703 15.6559 6.52559C15.7361 6.44414 15.8447 6.39843 15.9578 6.39844H15.9608C18.4476 6.4161 20.5594 7.27213 22.2361 8.94368C23.9128 10.6152 24.7773 12.9288 24.8007 15.8137C24.8011 15.8712 24.7904 15.9283 24.7693 15.9816C24.7481 16.0348 24.7169 16.0833 24.6774 16.1243C24.6379 16.1652 24.5909 16.1978 24.539 16.2202C24.4872 16.2426 24.4316 16.2543 24.3753 16.2547L24.3723 16.2542Z" fill="white"/>
<path d="M17.4477 20.0301C17.4477 20.0301 18.05 20.082 18.3742 19.6738L19.0065 18.8608C19.3114 18.4578 20.0474 18.2006 20.7681 18.611C21.3081 18.9258 21.8325 19.268 22.3391 19.6364C22.8173 19.9958 23.7967 20.8311 23.7998 20.8311C24.2663 21.2336 24.3741 21.8247 24.0564 22.4481C24.0564 22.4517 24.0539 22.4579 24.0539 22.4611C23.704 23.0809 23.2598 23.6399 22.738 24.117C22.7319 24.1201 22.7319 24.1233 22.7263 24.1264C22.273 24.5135 21.8276 24.7336 21.3902 24.7866C21.3257 24.798 21.2603 24.8022 21.195 24.799C21.0021 24.8012 20.8101 24.771 20.6268 24.7097L20.6125 24.6884C19.9386 24.4941 18.8134 24.0079 16.9395 22.9514C15.8543 22.3474 14.8212 21.6504 13.8514 20.8679C13.3654 20.4762 12.902 20.0561 12.4634 19.6099L12.4166 19.5621L12.3698 19.5143L12.3231 19.4665L12.2763 19.4187C11.8397 18.9704 11.4287 18.4968 11.0454 18.0001C10.28 17.0097 9.598 15.9547 9.00678 14.8466C7.97302 12.931 7.4973 11.782 7.30721 11.0922L7.28638 11.0776C7.22687 10.8901 7.19751 10.694 7.19947 10.4969C7.19599 10.4302 7.19991 10.3632 7.21116 10.2974C7.26706 9.85139 7.48341 9.39585 7.86019 8.93078C7.86323 8.92506 7.86628 8.92506 7.86933 8.91883C8.33597 8.38544 8.88295 7.93163 9.48962 7.57453C9.49267 7.57453 9.49877 7.57141 9.50232 7.57141C10.1122 7.24676 10.6906 7.35688 11.084 7.83113C11.087 7.83425 11.9028 8.8352 12.2529 9.32399C12.6131 9.84343 12.9475 10.3791 13.2562 10.9311C13.6577 11.6672 13.4087 12.4209 13.0118 12.7315L12.2164 13.3777C11.8148 13.7091 11.8677 14.3246 11.8677 14.3246C11.8677 14.3246 13.0458 18.8816 17.4477 20.0301Z" stroke="white" stroke-width="1.5"/>
</svg>
