<svg width="24" height="24" viewBox="0 0 24 24" fill="none" xmlns="http://www.w3.org/2000/svg">
<path d="M19.5273 7.58862C20.1066 8.1679 20.5661 8.85561 20.8796 9.61248C21.1931 10.3693 21.3545 11.1806 21.3545 11.9998C21.3545 12.819 21.1931 13.6302 20.8796 14.3871C20.5661 15.1439 20.1066 15.8317 19.5273 16.4109" stroke="#848484" stroke-width="2" stroke-linecap="round" stroke-linejoin="round"/>
<path d="M7.49656 15.4657H3.33768C3.15384 15.4657 2.97754 15.3927 2.84755 15.2627C2.71756 15.1327 2.64453 14.9564 2.64453 14.7726V9.22742C2.64453 9.04359 2.71756 8.86728 2.84755 8.73729C2.97754 8.6073 3.15384 8.53428 3.33768 8.53428H7.49656L13.7349 3.68225V20.3178L7.49656 15.4657Z" stroke="#848484" stroke-width="2" stroke-linecap="round" stroke-linejoin="round"/>
<path d="M7.49609 8.5343V15.4658" stroke="#848484" stroke-width="2" stroke-linecap="round" stroke-linejoin="round"/>
<path d="M17.0781 10.0397C17.3356 10.2971 17.5398 10.6028 17.6791 10.9392C17.8185 11.2756 17.8902 11.6361 17.8902 12.0002C17.8902 12.3643 17.8185 12.7248 17.6791 13.0612C17.5398 13.3976 17.3356 13.7032 17.0781 13.9607" stroke="#848484" stroke-width="2" stroke-linecap="round" stroke-linejoin="round"/>
</svg>
