<svg width="32" height="32" viewBox="0 0 32 32" fill="none" xmlns="http://www.w3.org/2000/svg">
<circle cx="16" cy="16" r="16" fill="#33B322"/>
<path d="M8.25895 19.9491C7.14076 18.0641 6.74916 15.8357 7.15768 13.6824C7.56621 11.5291 8.74675 9.59903 10.4776 8.25456C12.2085 6.91009 14.3707 6.24373 16.5581 6.38061C18.7455 6.51749 20.8078 7.4482 22.3575 8.99797C23.9073 10.5477 24.838 12.6099 24.9749 14.7974C25.1118 16.9848 24.4455 19.147 23.101 20.8779C21.7565 22.6087 19.8264 23.7893 17.6732 24.1978C15.5199 24.6064 13.2915 24.2148 11.4065 23.0966L11.4065 23.0965L8.29808 23.9846C8.16948 24.0214 8.03338 24.0231 7.90391 23.9895C7.77443 23.956 7.65628 23.8884 7.56171 23.7938C7.46713 23.6992 7.39956 23.5811 7.36601 23.4516C7.33246 23.3221 7.33415 23.186 7.37089 23.0574L8.25902 19.949L8.25895 19.9491Z" stroke="white" stroke-width="1.5" stroke-linecap="round" stroke-linejoin="round"/>
<path d="M18.2607 20.6055C17.274 20.6069 16.2967 20.4136 15.3848 20.0366C14.4729 19.6597 13.6444 19.1065 12.9467 18.4088C12.249 17.7111 11.6958 16.8825 11.3189 15.9707C10.9419 15.0588 10.7486 14.0815 10.75 13.0948C10.7522 12.4003 11.0299 11.735 11.522 11.2449C12.0141 10.7548 12.6805 10.4799 13.375 10.4805V10.4805C13.4889 10.4805 13.6008 10.5106 13.6993 10.5678C13.7979 10.6249 13.8795 10.7072 13.936 10.8061L15.0321 12.7241C15.0982 12.8398 15.1323 12.971 15.1309 13.1042C15.1294 13.2374 15.0926 13.3679 15.024 13.4821L14.1438 14.9491C14.5967 15.9541 15.4014 16.7588 16.4063 17.2117V17.2117L17.8734 16.3315C17.9876 16.2629 18.118 16.226 18.2513 16.2246C18.3845 16.2232 18.5157 16.2573 18.6313 16.3234L20.5494 17.4194C20.6483 17.4759 20.7305 17.5576 20.7877 17.6561C20.8449 17.7547 20.875 17.8666 20.875 17.9805V17.9805C20.873 18.6742 20.5973 19.3391 20.1077 19.8307C19.6182 20.3222 18.9544 20.6007 18.2607 20.6055V20.6055Z" stroke="white" stroke-width="1.5" stroke-linecap="round" stroke-linejoin="round"/>
</svg>
