<svg width="24" height="24" viewBox="0 0 24 24" fill="none" xmlns="http://www.w3.org/2000/svg">
<g clip-path="url(#clip0_1473_16)">
<path d="M15.0801 8.84003V11.58" stroke="white" stroke-width="1.3" stroke-linecap="round" stroke-linejoin="round"/>
<path d="M15.0801 2.37002V0.650024" stroke="white" stroke-width="1.3" stroke-linecap="round" stroke-linejoin="round"/>
<path d="M12.2802 7.21997L9.91016 8.59997" stroke="white" stroke-width="1.3" stroke-linecap="round" stroke-linejoin="round"/>
<path d="M12.2802 3.99L9.91016 2.62" stroke="white" stroke-width="1.3" stroke-linecap="round" stroke-linejoin="round"/>
<path d="M15.29 5.49002L22.95 0.650024" stroke="white" stroke-width="1.3" stroke-linecap="round" stroke-linejoin="round"/>
<path d="M17.8799 7.21997L20.2599 8.59997" stroke="white" stroke-width="1.3" stroke-linecap="round" stroke-linejoin="round"/>
<path d="M8.19039 6.98999L2.87039 19.7H0.650391V22.89H9.51039V19.99C9.51039 19.99 8.00039 19.65 8.00039 18.53C8.00039 17.41 9.46039 16.92 10.7304 16.97C12.0004 17.02 13.3104 17.65 13.3104 18.48C13.3104 19.31 12.0504 19.99 12.0504 19.99V22.89H20.4704V19.79L17.6304 19.71C17.5304 19.17 15.5304 14.71 15.5304 14.71" stroke="white" stroke-width="1.3" stroke-linecap="round" stroke-linejoin="round"/>
<path d="M10.0105 11.28L8.60047 13.72C8.55914 13.7955 8.538 13.8804 8.5391 13.9665C8.5402 14.0526 8.56351 14.1369 8.60675 14.2113C8.65 14.2857 8.71172 14.3477 8.78595 14.3913C8.86018 14.4349 8.94441 14.4585 9.03047 14.46H11.9405C12.0284 14.4609 12.1149 14.438 12.1909 14.394C12.2669 14.3499 12.3297 14.2862 12.3727 14.2095C12.4156 14.1328 12.4372 14.0459 12.435 13.9581C12.4329 13.8702 12.4071 13.7845 12.3605 13.71L10.8405 11.26C10.7947 11.1908 10.7321 11.1343 10.6585 11.0959C10.585 11.0575 10.5029 11.0384 10.4199 11.0404C10.337 11.0424 10.2559 11.0655 10.1843 11.1074C10.1127 11.1493 10.0529 11.2087 10.0105 11.28V11.28Z" stroke="white" stroke-width="1.3" stroke-linecap="round" stroke-linejoin="round"/>
</g>
<defs>
<clipPath id="clip0_1473_16">
<rect width="24" height="24" fill="white"/>
</clipPath>
</defs>
</svg>
