<svg width="24" height="24" viewBox="0 0 24 24" fill="none" xmlns="http://www.w3.org/2000/svg">
<g clip-path="url(#clip0_1473_38)">
<path d="M18.5596 16.35H15.8096" stroke="white" stroke-width="1.3" stroke-linecap="round" stroke-linejoin="round"/>
<path d="M8.2998 16.35H11.0398" stroke="white" stroke-width="1.3" stroke-linecap="round" stroke-linejoin="round"/>
<path d="M13.4297 13.49V10.75" stroke="white" stroke-width="1.3" stroke-linecap="round" stroke-linejoin="round"/>
<path d="M15.5 14.22L17.44 12.28" stroke="white" stroke-width="1.3" stroke-linecap="round" stroke-linejoin="round"/>
<path d="M11.1998 14.22L9.25977 12.28" stroke="white" stroke-width="1.3" stroke-linecap="round" stroke-linejoin="round"/>
<path d="M7.69043 0.650024V3.84002H19.1604V0.650024" stroke="white" stroke-width="1.3" stroke-linecap="round" stroke-linejoin="round"/>
<path d="M9.70996 3.83997V6.26997L12.1 9.02997H14.92L17.14 6.30997V3.83997" stroke="white" stroke-width="1.3" stroke-linecap="round" stroke-linejoin="round"/>
<path d="M13.3998 17.41C13.9853 17.41 14.4598 16.9355 14.4598 16.35C14.4598 15.7646 13.9853 15.29 13.3998 15.29C12.8144 15.29 12.3398 15.7646 12.3398 16.35C12.3398 16.9355 12.8144 17.41 13.3998 17.41Z" fill="white"/>
<path d="M3.96957 13.1C4.61022 13.1 5.12957 12.5807 5.12957 11.94C5.12957 11.2994 4.61022 10.78 3.96957 10.78C3.32892 10.78 2.80957 11.2994 2.80957 11.94C2.80957 12.5807 3.32892 13.1 3.96957 13.1Z" fill="white"/>
<path d="M21.14 11.07C21.7917 11.07 22.32 10.5417 22.32 9.88996C22.32 9.23827 21.7917 8.70996 21.14 8.70996C20.4883 8.70996 19.96 9.23827 19.96 9.88996C19.96 10.5417 20.4883 11.07 21.14 11.07Z" fill="white"/>
<path d="M0.650391 15.49H4.59039V19.98H21.1404V16.35H23.0704" stroke="white" stroke-width="1.3" stroke-linecap="round" stroke-linejoin="round"/>
<path d="M0.650391 22.98H23.0604" stroke="white" stroke-width="1.3" stroke-linecap="round" stroke-linejoin="round"/>
</g>
<defs>
<clipPath id="clip0_1473_38">
<rect width="24" height="24" fill="white"/>
</clipPath>
</defs>
</svg>
