<svg width="24" height="24" viewBox="0 0 24 24" fill="none" xmlns="http://www.w3.org/2000/svg">
<g clip-path="url(#clip0_1473_25)">
<path d="M0.650391 0.650024H6.26039V2.82002L8.26039 4.15002V7.16002L9.97039 8.77003H11.8704" stroke="white" stroke-width="1.3" stroke-linecap="round" stroke-linejoin="round"/>
<path d="M23.0801 0.650024H17.4701V2.82002L15.4701 4.15002V7.16002L13.7601 8.77003H11.8701" stroke="white" stroke-width="1.3" stroke-linecap="round" stroke-linejoin="round"/>
<path d="M8.25977 4.51001H15.4498" stroke="white" stroke-width="1.3" stroke-linecap="round" stroke-linejoin="round"/>
<path d="M11.8701 9.22998V12.22" stroke="white" stroke-width="1.3" stroke-linecap="round" stroke-linejoin="round"/>
<path d="M5.84039 10.1899L0.650391 13.7699L6.31039 18.0099L10.9004 15.0899L6.96039 14.9699" stroke="white" stroke-width="1.3" stroke-linecap="round" stroke-linejoin="round"/>
<path d="M17.8802 10.03L23.0802 13.56L11.5102 22.7L8.24023 20.14L14.4002 15.82H16.3102" stroke="white" stroke-width="1.3" stroke-linecap="round" stroke-linejoin="round"/>
<path d="M8.24023 11.47L9.16023 12.05" stroke="white" stroke-width="1.3" stroke-linecap="round" stroke-linejoin="round"/>
<path d="M14.1396 12.42L16.1796 11.26" stroke="white" stroke-width="1.3" stroke-linecap="round" stroke-linejoin="round"/>
<path d="M3.68039 5.39001H0.650391V8.42001H3.68039V5.39001Z" stroke="white" stroke-width="1.3" stroke-linecap="round" stroke-linejoin="round"/>
<path d="M3.68039 19.4301H0.650391V22.4601H3.68039V19.4301Z" stroke="white" stroke-width="1.3" stroke-linecap="round" stroke-linejoin="round"/>
<path d="M23.0798 5.39001H20.0498V8.42001H23.0798V5.39001Z" stroke="white" stroke-width="1.3" stroke-linecap="round" stroke-linejoin="round"/>
<path d="M23.0798 19.4301H20.0498V22.4601H23.0798V19.4301Z" stroke="white" stroke-width="1.3" stroke-linecap="round" stroke-linejoin="round"/>
</g>
<defs>
<clipPath id="clip0_1473_25">
<rect width="24" height="24" fill="white"/>
</clipPath>
</defs>
</svg>
