<svg width="64" height="64" viewBox="0 0 64 64" fill="none" xmlns="http://www.w3.org/2000/svg">
<circle cx="32" cy="32" r="32" fill="url(#paint0_linear_1242_2466)"/>
<circle cx="32" cy="32" r="26" stroke="white" stroke-width="2"/>
<path d="M21 24V40C21 40.5304 21.2107 41.0391 21.5858 41.4142C21.9609 41.7893 22.4696 42 23 42H43C43.2652 42 43.5196 41.8946 43.7071 41.7071C43.8946 41.5196 44 41.2652 44 41V27C44 26.7348 43.8946 26.4804 43.7071 26.2929C43.5196 26.1054 43.2652 26 43 26H23C22.4696 26 21.9609 25.7893 21.5858 25.4142C21.2107 25.0391 21 24.5304 21 24ZM21 24C21 23.4696 21.2107 22.9609 21.5858 22.5858C21.9609 22.2107 22.4696 22 23 22H40" stroke="white" stroke-width="2" stroke-linecap="round" stroke-linejoin="round"/>
<path d="M38.5 35.5C39.3284 35.5 40 34.8284 40 34C40 33.1716 39.3284 32.5 38.5 32.5C37.6716 32.5 37 33.1716 37 34C37 34.8284 37.6716 35.5 38.5 35.5Z" fill="white"/>
<defs>
<linearGradient id="paint0_linear_1242_2466" x1="4" y1="3" x2="56" y2="60.5" gradientUnits="userSpaceOnUse">
<stop offset="0.181933" stop-color="#DA121A"/>
<stop offset="1" stop-color="#0E78C0"/>
</linearGradient>
</defs>
</svg>
