<svg width="24" height="24" viewBox="0 0 24 24" fill="none" xmlns="http://www.w3.org/2000/svg">
<path d="M14 17H3" stroke="#4E50A0" stroke-width="2" stroke-linecap="round" stroke-linejoin="round"/>
<path d="M21 17H18" stroke="#4E50A0" stroke-width="2" stroke-linecap="round" stroke-linejoin="round"/>
<path d="M16 19C17.1046 19 18 18.1046 18 17C18 15.8954 17.1046 15 16 15C14.8954 15 14 15.8954 14 17C14 18.1046 14.8954 19 16 19Z" stroke="#4E50A0" stroke-width="2" stroke-linecap="round" stroke-linejoin="round"/>
<path d="M8 7H3" stroke="#4E50A0" stroke-width="2" stroke-linecap="round" stroke-linejoin="round"/>
<path d="M21 7H12" stroke="#4E50A0" stroke-width="2" stroke-linecap="round" stroke-linejoin="round"/>
<path d="M10 9C11.1046 9 12 8.10457 12 7C12 5.89543 11.1046 5 10 5C8.89543 5 8 5.89543 8 7C8 8.10457 8.89543 9 10 9Z" stroke="#4E50A0" stroke-width="2" stroke-linecap="round" stroke-linejoin="round"/>
</svg>
