<svg width="16" height="16" viewBox="0 0 16 16" fill="none" xmlns="http://www.w3.org/2000/svg">
<path d="M9.71067 6.32816C8.59416 5.94513 7.3814 5.94789 6.26665 6.336C6.18562 6.36493 6.11352 6.41446 6.05744 6.47971C6.00136 6.54497 5.96325 6.6237 5.94684 6.70816L5.5782 8.55239C5.5619 8.63395 5.5255 8.71016 5.47232 8.77411C5.41913 8.83806 5.35083 8.88773 5.2736 8.91862L2.31656 10.1014C2.21638 10.1419 2.10576 10.1487 2.00138 10.1208C1.897 10.0929 1.80451 10.0318 1.73784 9.94682C1.29132 9.36945 1.07056 8.64912 1.1169 7.9207C1.16323 7.19228 1.47349 6.50573 1.98957 5.98959C3.58363 4.39553 5.74564 3.5 7.99998 3.5C10.2543 3.5 12.4163 4.39553 14.0104 5.98959C14.5265 6.50573 14.8367 7.19228 14.8831 7.9207C14.9294 8.64912 14.7086 9.36945 14.2621 9.94682C14.1954 10.0318 14.103 10.0929 13.9986 10.1208C13.8942 10.1487 13.7836 10.1419 13.6834 10.1014L10.7238 8.91759C10.6472 8.88697 10.5794 8.83789 10.5264 8.77473C10.4734 8.71157 10.4369 8.63628 10.42 8.55557L10.0319 6.69694C10.0148 6.61294 9.97623 6.5348 9.91993 6.47017C9.86363 6.40553 9.79153 6.3566 9.71067 6.32816Z" stroke="#848484" stroke-width="1.5" stroke-linecap="round" stroke-linejoin="round"/>
<path d="M2.5 12.5H13.5" stroke="#848484" stroke-width="1.5" stroke-linecap="round" stroke-linejoin="round"/>
</svg>
