<svg width="24" height="24" viewBox="0 0 24 24" fill="none" xmlns="http://www.w3.org/2000/svg">
<path fill-rule="evenodd" clip-rule="evenodd" d="M4.95785 6.45996H2.77593C2.15252 6.45996 2.02783 6.73452 2.02783 7.03718C2.02783 7.57784 2.76756 10.2592 5.4721 13.8055C7.27513 16.2273 9.81542 17.5402 12.127 17.5402C13.514 17.5402 13.6856 17.2486 13.6856 16.7464V14.9159C13.6856 14.3327 13.8169 14.2163 14.2561 14.2163C14.5798 14.2163 15.1345 14.3677 16.429 15.5354C17.9085 16.9193 18.1523 17.5402 18.9845 17.5402H21.1664C21.7898 17.5402 22.1015 17.2486 21.9217 16.6732C21.7249 16.0997 21.0186 15.2676 20.0813 14.2812C19.5728 13.719 18.81 13.1136 18.5788 12.8108C18.2552 12.4216 18.3476 12.2486 18.5788 11.9026C18.5788 11.9026 21.2371 8.39952 21.5145 7.21027C21.6532 6.77773 21.5145 6.45996 20.8547 6.45996H18.6728C18.118 6.45996 17.8622 6.73452 17.7235 7.03718C17.7235 7.03718 16.614 9.5672 15.0421 11.2106C14.5335 11.6863 14.3023 11.8377 14.0249 11.8377C13.8863 11.8377 13.6855 11.6863 13.6855 11.2539V7.21027C13.6855 6.69125 13.5245 6.45996 13.0621 6.45996H9.63336C9.28671 6.45996 9.07816 6.70081 9.07816 6.92912C9.07816 7.42108 9.8641 7.53457 9.94512 8.91848V11.9243C9.94512 12.5832 9.81785 12.7027 9.5405 12.7027C8.80081 12.7027 7.00152 10.1614 5.93437 7.25348C5.72527 6.68827 5.51548 6.45996 4.95785 6.45996Z" stroke="#848484" stroke-width="2"/>
</svg>
