<svg width="160" height="46" viewBox="0 0 160 46" fill="none" xmlns="http://www.w3.org/2000/svg">
<g clip-path="url(#clip0_105_2)">
<path d="M10.6846 44.8691V40.0728H11.5571V42.9286C11.5631 43.1434 11.5531 43.3584 11.5272 43.5717C11.6501 43.3457 11.7917 43.1306 11.9504 42.9286L14.0101 40.0728H14.8864V44.8577H14.0101V42.0019C14.0101 41.9149 14.0101 41.7938 14.0101 41.6236C14.0101 41.4534 14.0288 41.3702 14.0288 41.3588H14.0101C14.0101 41.3588 13.8715 41.5858 13.5982 41.9943L11.5497 44.8502L10.6846 44.8691Z" fill="#1D1D1B"/>
<path d="M16.2832 44.8691V40.0728H17.1932V42.0208H19.59V40.0728H20.4963V44.8577H19.59V42.8038H17.1932V44.8577L16.2832 44.8691Z" fill="#1D1D1B"/>
<path d="M21.9009 44.8691V40.0728H22.8109V42.0208H25.2077V40.0728H26.114V44.8577H25.2077V42.8038H22.8109V44.8577L21.9009 44.8691Z" fill="#1D1D1B"/>
<path d="M27.9488 40.6894C28.1881 40.4544 28.4712 40.2699 28.7817 40.1465C29.0923 40.0231 29.424 39.9634 29.7576 39.9707C30.4307 39.9548 31.0825 40.2092 31.5702 40.678C31.8141 40.905 32.0072 41.1822 32.1363 41.4907C32.2655 41.7993 32.3279 42.1323 32.3192 42.4672C32.3268 42.8031 32.264 43.1368 32.1349 43.4465C32.0058 43.7561 31.8134 44.0347 31.5702 44.2639C31.3318 44.4991 31.0494 44.6838 30.7394 44.8072C30.4294 44.9306 30.0982 44.9903 29.7651 44.9826C29.4303 44.9901 29.0974 44.9304 28.7857 44.807C28.4739 44.6837 28.1894 44.4991 27.9488 44.2639C27.706 44.0344 27.5138 43.7558 27.3847 43.4462C27.2557 43.1366 27.1927 42.803 27.1998 42.4672C27.1925 42.1341 27.2555 41.8033 27.3846 41.4968C27.5138 41.1902 27.7061 40.915 27.9488 40.6894ZM28.6042 43.7154C28.7546 43.872 28.9353 43.9957 29.135 44.079C29.3346 44.1623 29.5491 44.2033 29.7651 44.1996C29.9806 44.2029 30.1944 44.1609 30.393 44.0762C30.5916 43.9916 30.7706 43.8661 30.9185 43.7079C31.0754 43.5456 31.1983 43.3532 31.28 43.142C31.3617 42.9308 31.4005 42.7052 31.3942 42.4785C31.4015 42.2529 31.3631 42.0281 31.2813 41.818C31.1995 41.6079 31.0761 41.4169 30.9185 41.2568C30.6107 40.9486 30.1948 40.7757 29.7614 40.7757C29.3279 40.7757 28.912 40.9486 28.6042 41.2568C28.4498 41.4188 28.3288 41.6103 28.2485 41.8201C28.1681 42.0299 28.1299 42.2537 28.136 42.4785C28.1267 42.9333 28.2949 43.3735 28.6042 43.7041V43.7154Z" fill="#1D1D1B"/>
<path d="M33.4087 44.8691V40.0728H35.3636C36.3373 40.0728 36.9477 40.5078 36.9477 41.3021C36.9492 41.5242 36.8861 41.7419 36.7663 41.9281C36.6465 42.1144 36.4751 42.261 36.2736 42.3499C36.5305 42.4037 36.7606 42.5466 36.9241 42.7539C37.0876 42.9612 37.1741 43.2197 37.1686 43.4847C37.1686 44.3547 36.487 44.8464 35.431 44.8464L33.4087 44.8691ZM34.315 42.1078H35.2063C35.7381 42.1078 36.0189 41.8317 36.0189 41.3778C36.0189 40.9238 35.7381 40.7158 35.1763 40.7158H34.315V42.1078ZM34.315 44.226H35.2887C35.9253 44.226 36.2549 43.9423 36.2549 43.4695C36.2549 42.9967 35.9066 42.713 35.2812 42.713H34.315V44.226Z" fill="#1D1D1B"/>
<path d="M38.94 42.1644C39.51 41.9688 40.1095 41.8753 40.7114 41.8883H40.9548V41.7937C40.9749 41.6511 40.9619 41.5056 40.9166 41.369C40.8713 41.2323 40.7951 41.1082 40.6941 41.0065C40.593 40.9048 40.4699 40.8283 40.3344 40.783C40.1989 40.7378 40.0549 40.7251 39.9137 40.746C39.4331 40.7522 38.9671 40.914 38.5842 41.2074L38.2097 40.5379C38.7247 40.1647 39.3436 39.966 39.9774 39.9705C41.1758 39.9705 41.8498 40.6325 41.8498 41.8429V44.869H41.011V44.3848L41.0372 44.0066C40.891 44.297 40.6688 44.5414 40.3949 44.7135C40.1209 44.8855 39.8056 44.9785 39.483 44.9825C39.0757 44.9968 38.6769 44.8625 38.3595 44.6042C38.2079 44.4811 38.0866 44.3241 38.0054 44.1455C37.9241 43.967 37.8851 43.7718 37.8914 43.5753C37.8807 43.2547 37.9789 42.9399 38.1696 42.6833C38.3603 42.4267 38.6322 42.2436 38.94 42.1644ZM39.689 44.2524C39.8682 44.2532 40.045 44.2107 40.2046 44.1285C40.3642 44.0462 40.502 43.9266 40.6065 43.7796C40.8372 43.48 40.9624 43.1113 40.9623 42.7318V42.5503H40.7264C39.4456 42.5503 38.7977 42.8642 38.7977 43.4884C38.8021 43.5985 38.829 43.7066 38.8767 43.8058C38.9243 43.905 38.9918 43.9933 39.0747 44.065C39.1577 44.1367 39.2544 44.1903 39.3588 44.2226C39.4632 44.2548 39.573 44.265 39.6815 44.2524H39.689Z" fill="#1D1D1B"/>
<path d="M43.2017 44.8691V40.0728H44.1192V44.0634H46.3662V40.0728H47.2837V44.0634H47.9503V45.9925H47.1152V44.8577L43.2017 44.8691Z" fill="#1D1D1B"/>
<path d="M48.9131 44.8691V40.0728H49.7819V42.9286C49.7884 43.1433 49.7797 43.3582 49.7557 43.5717H49.7744C49.8954 43.3453 50.0357 43.1302 50.1939 42.9286L52.2349 40.0728H53.1075V44.8577H52.2274V42.0019C52.2274 41.9149 52.2274 41.7938 52.2274 41.6236C52.2274 41.4534 52.2461 41.3702 52.2461 41.3588H52.2274C52.2274 41.3588 52.0888 41.5858 51.8192 41.9943L49.7669 44.8502L48.9131 44.8691Z" fill="#1D1D1B"/>
<path d="M54.9426 40.6894C55.1809 40.4542 55.4633 40.2695 55.7733 40.146C56.0833 40.0226 56.4145 39.963 56.7476 39.9707C57.4218 39.955 58.0747 40.2093 58.5639 40.678C58.8075 40.9053 59.0003 41.1825 59.1295 41.491C59.2586 41.7995 59.3212 42.1323 59.3129 42.4672C59.3201 42.803 59.2571 43.1366 59.128 43.4462C58.999 43.7557 58.8068 44.0344 58.5639 44.2639C58.072 44.726 57.4251 44.9829 56.7532 44.9829C56.0814 44.9829 55.4345 44.726 54.9426 44.2639C54.6994 44.0347 54.5069 43.7561 54.3778 43.4464C54.2488 43.1368 54.186 42.8031 54.1936 42.4672C54.1855 42.134 54.2482 41.8029 54.3774 41.4963C54.5066 41.1896 54.6993 40.9145 54.9426 40.6894ZM55.5979 43.7154C55.7481 43.8723 55.9287 43.9963 56.1285 44.0796C56.3282 44.1629 56.5428 44.2038 56.7589 44.1996C56.9738 44.2028 57.1871 44.1608 57.385 44.0761C57.583 43.9914 57.7613 43.866 57.9086 43.7078C58.0654 43.5456 58.1883 43.3532 58.27 43.142C58.3518 42.9308 58.3906 42.7052 58.3842 42.4785C58.3915 42.2529 58.3531 42.0281 58.2713 41.818C58.1895 41.6079 58.0661 41.4169 57.9086 41.2567C57.6013 40.9488 57.1861 40.776 56.7532 40.776C56.3204 40.776 55.9052 40.9488 55.5979 41.2567C55.4428 41.4183 55.3215 41.6097 55.2411 41.8196C55.1606 42.0295 55.1228 42.2536 55.1298 42.4785C55.1189 42.9335 55.2872 43.3743 55.5979 43.7041V43.7154Z" fill="#1D1D1B"/>
<path d="M60.3989 44.8691V40.0728H61.309V42.0208H63.702V40.0728H64.612V44.8577H63.702V42.8038H61.309V44.8577L60.3989 44.8691Z" fill="#1D1D1B"/>
<path d="M66.0161 44.8691V40.0728H66.9262V42.0208H69.3192V40.0728H70.2292V44.8577H69.3192V42.8038H66.9262V44.8577L66.0161 44.8691Z" fill="#1D1D1B"/>
<path d="M71.6338 44.8691V40.0728H72.5438V41.8014H73.4688C74.5174 41.8014 75.1915 42.3121 75.1915 43.3447C75.1915 44.279 74.6111 44.8577 73.4613 44.8577L71.6338 44.8691ZM72.5438 44.2071H73.3303C73.9557 44.2071 74.2665 43.8743 74.2665 43.3447C74.2665 42.8151 73.9557 42.4747 73.3228 42.4747H72.5363L72.5438 44.2071ZM75.9143 44.8691V40.0728H76.8206V44.8577L75.9143 44.8691Z" fill="#1D1D1B"/>
<path d="M78.5994 40.6591C78.8212 40.4321 79.0871 40.2539 79.3803 40.1354C79.6735 40.017 79.9877 39.9609 80.3033 39.9707C80.5848 39.9571 80.8657 40.0078 81.1251 40.1192C81.3845 40.2305 81.6156 40.3996 81.8013 40.6137C82.1738 41.0584 82.3676 41.628 82.3443 42.21C82.342 42.3369 82.3294 42.4634 82.3069 42.5882H78.8727C78.8727 42.8072 78.9165 43.024 79.0015 43.2255C79.0864 43.427 79.2108 43.609 79.3671 43.7608C79.6786 44.0337 80.0783 44.1817 80.4906 44.1769C81.0082 44.1744 81.5059 43.9745 81.8837 43.6171L82.2582 44.2904C81.754 44.7312 81.1124 44.9789 80.4456 44.9902C80.111 45.0021 79.7774 44.9452 79.4652 44.8229C79.153 44.7007 78.8686 44.5157 78.6293 44.279C78.3979 44.0431 78.2162 43.7623 78.0952 43.4535C77.9742 43.1447 77.9164 42.8143 77.9253 42.4823C77.9106 42.1483 77.9628 41.8147 78.0786 41.5014C78.1944 41.1882 78.3715 40.9017 78.5994 40.6591ZM81.4381 41.9376C81.4081 41.1433 80.9325 40.678 80.2846 40.678C79.9392 40.6737 79.6048 40.8008 79.348 41.0343C79.0913 41.2677 78.9309 41.5902 78.899 41.9376H81.4381Z" fill="#1D1D1B"/>
<path d="M89.2723 44.8691V40.8671H87.6245V40.0728H91.8264V40.8558H90.1823V44.8577L89.2723 44.8691Z" fill="#1D1D1B"/>
<path d="M92.9238 40.6591C93.1457 40.4321 93.4116 40.2539 93.7047 40.1354C93.9979 40.017 94.3122 39.9609 94.6278 39.9707C94.9093 39.9571 95.1902 40.0078 95.4496 40.1192C95.709 40.2305 95.9401 40.3996 96.1258 40.6137C96.4982 41.0584 96.692 41.628 96.6688 42.21C96.6664 42.3369 96.6539 42.4634 96.6313 42.5882H93.1897C93.1897 42.8072 93.2335 43.024 93.3185 43.2255C93.4034 43.4269 93.5278 43.609 93.6841 43.7608C93.9956 44.0337 94.3953 44.1817 94.8075 44.1769C95.3252 44.1744 95.8228 43.9745 96.2007 43.6171L96.5752 44.2904C96.0634 44.7285 95.4147 44.9697 94.7439 44.9713C94.4092 44.9832 94.0757 44.9263 93.7635 44.804C93.4512 44.6818 93.1669 44.4967 92.9276 44.2601C92.6962 44.0242 92.5145 43.7434 92.3935 43.4346C92.2725 43.1258 92.2147 42.7954 92.2235 42.4634C92.2149 42.1306 92.2724 41.7995 92.3927 41.4896C92.513 41.1797 92.6936 40.8973 92.9238 40.6591ZM95.7625 41.9376C95.7326 41.1433 95.257 40.678 94.6091 40.678C94.2637 40.6737 93.9293 40.8008 93.6725 41.0343C93.4157 41.2677 93.2554 41.5902 93.2234 41.9376H95.7625Z" fill="#1D1D1B"/>
<path d="M97.1929 44.8691L98.8144 42.4104L97.2977 40.0728H98.3389L99.2189 41.529L99.3687 41.8127C99.4324 41.7068 99.4811 41.6123 99.526 41.529L100.406 40.0728H101.443L99.9192 42.4104L101.537 44.8691H100.518L99.5447 43.269L99.3949 43.0156L99.2526 43.269L98.2602 44.8691H97.1929Z" fill="#1D1D1B"/>
<path d="M102.41 44.8691V40.0728H103.316V42.0208H105.713V40.0728H106.619V44.8577H105.713V42.8038H103.316V44.8577L102.41 44.8691Z" fill="#1D1D1B"/>
<path d="M108.458 40.6893C108.697 40.4542 108.979 40.2694 109.289 40.146C109.599 40.0226 109.93 39.963 110.263 39.9706C110.937 39.9554 111.59 40.2096 112.08 40.678C112.323 40.9053 112.516 41.1825 112.645 41.491C112.774 41.7995 112.837 42.1323 112.829 42.4671C112.836 42.803 112.773 43.1365 112.644 43.4461C112.515 43.7557 112.322 44.0343 112.08 44.2639C111.588 44.726 110.941 44.9828 110.269 44.9828C109.597 44.9828 108.95 44.726 108.458 44.2639C108.215 44.0346 108.023 43.7561 107.893 43.4464C107.764 43.1368 107.702 42.803 107.709 42.4671C107.701 42.134 107.764 41.8029 107.893 41.4963C108.022 41.1896 108.215 40.9145 108.458 40.6893ZM109.114 43.7154C109.264 43.8723 109.444 43.9963 109.644 44.0796C109.844 44.1629 110.058 44.2037 110.274 44.1995C110.489 44.2028 110.703 44.1607 110.901 44.0761C111.099 43.9914 111.277 43.866 111.424 43.7078C111.581 43.5456 111.704 43.3531 111.786 43.142C111.867 42.9308 111.906 42.7051 111.9 42.4785C111.907 42.2528 111.869 42.0281 111.787 41.818C111.705 41.6079 111.582 41.4169 111.424 41.2567C111.117 40.9488 110.702 40.776 110.269 40.776C109.836 40.776 109.421 40.9488 109.114 41.2567C108.958 41.4183 108.837 41.6097 108.757 41.8196C108.676 42.0295 108.638 42.2535 108.645 42.4785C108.634 42.9335 108.803 43.3743 109.114 43.704V43.7154Z" fill="#1D1D1B"/>
<path d="M113.271 44.0936C113.982 43.9802 114.338 43.2501 114.338 41.5593V40.0728H117.521V44.8577H116.611V40.8293H115.218V41.548C115.218 43.7494 114.656 44.8275 113.282 44.9031L113.271 44.0936Z" fill="#1D1D1B"/>
<path d="M119.345 40.6894C119.583 40.4543 119.866 40.2695 120.176 40.1461C120.486 40.0227 120.817 39.9631 121.15 39.9707C121.824 39.9543 122.477 40.2086 122.966 40.6781C123.21 40.9051 123.403 41.1822 123.532 41.4908C123.662 41.7994 123.724 42.1323 123.715 42.4672C123.723 42.8031 123.66 43.1369 123.531 43.4465C123.402 43.7562 123.209 44.0347 122.966 44.264C122.728 44.4991 122.445 44.6838 122.135 44.8073C121.825 44.9307 121.494 44.9903 121.161 44.9826C120.826 44.9903 120.493 44.9308 120.182 44.8074C119.87 44.684 119.585 44.4993 119.345 44.264C119.102 44.0344 118.91 43.7558 118.781 43.4462C118.652 43.1366 118.589 42.8031 118.596 42.4672C118.588 42.1342 118.651 41.8033 118.781 41.4968C118.91 41.1903 119.102 40.915 119.345 40.6894ZM120 43.7155C120.15 43.8724 120.331 43.9964 120.531 44.0797C120.73 44.163 120.945 44.2038 121.161 44.1996C121.376 44.2029 121.589 44.1608 121.787 44.0762C121.985 43.9915 122.164 43.8661 122.311 43.7079C122.468 43.5459 122.592 43.3536 122.674 43.1424C122.756 42.9312 122.796 42.7055 122.79 42.4786C122.797 42.2527 122.758 42.0278 122.675 41.8178C122.593 41.6077 122.469 41.4168 122.311 41.2568C122.004 40.9489 121.588 40.7761 121.155 40.7761C120.723 40.7761 120.307 40.9489 120 41.2568C119.846 41.4189 119.725 41.6104 119.644 41.8202C119.564 42.0299 119.526 42.2537 119.532 42.4786C119.523 42.9333 119.691 43.3735 120 43.7041V43.7155Z" fill="#1D1D1B"/>
<path d="M124.805 44.8691V40.0728H127.771V40.8558H125.711V44.8577L124.805 44.8691Z" fill="#1D1D1B"/>
<path d="M128.67 44.8691V40.0728H129.542V42.9286C129.548 43.1434 129.538 43.3584 129.513 43.5717H129.531C129.654 43.3463 129.794 43.1312 129.951 42.9286L131.992 40.0728H132.876V44.8577H131.995V42.0019C131.995 41.9149 131.995 41.7938 131.995 41.6236C131.995 41.4534 132.014 41.3702 132.014 41.3588H131.995C131.995 41.3588 131.853 41.5858 131.583 41.9943L129.535 44.8502L128.67 44.8691Z" fill="#1D1D1B"/>
<path d="M134.268 44.8691V40.0728H135.141V42.9286C135.147 43.1434 135.137 43.3584 135.111 43.5717C135.234 43.3457 135.375 43.1306 135.534 42.9286L137.571 40.0728H138.451V44.8577H137.571V42.0019C137.571 41.9149 137.571 41.7938 137.571 41.6236C137.571 41.4534 137.571 41.3702 137.571 41.3588C137.571 41.3588 137.429 41.5858 137.159 41.9943L135.111 44.8502L134.268 44.8691Z" fill="#1D1D1B"/>
<path d="M90.0767 0H19.2519C11.0916 0 4.50049 5.32967 2.95007 13.1785L0.0776739 27.715C-0.472836 30.5065 1.92769 33.3586 4.82629 33.3586H83.4706L90.0767 0Z" fill="url(#paint0_linear_105_2)"/>
<path d="M155.177 0H94.1336L87.5425 33.3586H140.74C148.896 33.3586 155.487 28.0289 157.038 20.1801L159.921 5.65118C160.476 2.85207 158.075 0 155.177 0Z" fill="url(#paint1_linear_105_2)"/>
<path opacity="0.5" d="M140.215 30.654H7.58372C6.94291 30.6473 6.31162 30.4965 5.73573 30.2125C5.15984 29.9285 4.65382 29.5186 4.25444 29.0124C3.86251 28.5485 3.57754 28.0024 3.42016 27.4136C3.26277 26.8249 3.2369 26.2081 3.34442 25.608L5.68502 13.7534C6.99202 7.14901 12.4784 2.70825 19.3392 2.70825H151.975C152.615 2.71522 153.247 2.86617 153.822 3.15012C154.398 3.43406 154.904 3.84389 155.304 4.3499C155.696 4.8138 155.981 5.35987 156.138 5.94864C156.296 6.5374 156.321 7.15413 156.214 7.75423L153.87 19.6051C152.566 26.2132 147.08 30.654 140.215 30.654ZM19.3392 3.46101C12.8454 3.46101 7.65487 7.65588 6.41903 13.8971L4.07843 25.7518C3.9918 26.2423 4.01405 26.7461 4.14357 27.2269C4.2731 27.7077 4.50666 28.1534 4.82742 28.532C5.15669 28.9512 5.57417 29.2912 6.04959 29.5274C6.52501 29.7636 7.04648 29.89 7.57624 29.8975H140.215C146.713 29.8975 151.904 25.7026 153.136 19.4575L155.48 7.6067C155.567 7.11618 155.544 6.61236 155.415 6.13158C155.285 5.6508 155.052 5.20506 154.731 4.82651C154.402 4.40688 153.985 4.06659 153.509 3.83038C153.034 3.59416 152.512 3.46798 151.982 3.46101H19.3392Z" fill="white"/>
<g opacity="0.5">
<path opacity="0.5" d="M15.8188 24.8782V10.2283H19.3691V21.8068H25.2936V24.8782H15.8188Z" fill="#1D1D1B"/>
<path opacity="0.5" d="M35.9854 24.8782L35.0903 21.8068H30.5664L29.6938 24.8782H26.0425L30.9746 10.2283H34.7196L39.6255 24.8782H35.9854ZM32.8583 13.5683H32.8209C32.5962 14.635 32.4127 15.4596 32.2292 16.0875L31.3865 18.9358H34.2477L33.435 16.0875L32.8583 13.5683Z" fill="#1D1D1B"/>
<path opacity="0.5" d="M40.1836 23.0512L42.0561 20.3239L42.5617 20.7551C42.9555 21.0152 43.3701 21.2417 43.8012 21.4322C44.3417 21.686 44.9281 21.8251 45.5239 21.8407C46.3553 21.8407 47.0481 21.4927 47.0481 20.6719C47.0481 19.7906 45.4041 19.4047 43.7825 18.6255C42.1609 17.8463 40.5132 16.7342 40.5132 14.4874C40.4957 13.8709 40.6183 13.2585 40.8715 12.6973C41.1247 12.136 41.5017 11.6408 41.9737 11.2495C43.0083 10.3975 44.3133 9.95273 45.6475 9.99746C46.5112 9.98838 47.3697 10.1344 48.1829 10.4287C48.7759 10.5984 49.3332 10.8766 49.8269 11.2495L50.3137 11.658L48.8158 14.5895C48.6689 14.4602 48.5124 14.3426 48.3476 14.2377C47.9979 14.0013 47.6205 13.8094 47.2241 13.6666C46.7217 13.4293 46.1758 13.3005 45.6213 13.2883C44.7899 13.2883 44.0784 13.6666 44.0784 14.4231C44.0784 15.0775 45.0933 15.5579 46.3703 16.061C48.2428 16.7153 50.6508 17.8652 50.6133 20.5698C50.6211 21.1773 50.5021 21.7796 50.264 22.3375C50.0259 22.8954 49.6741 23.3963 49.2314 23.8077C48.3177 24.689 47.0631 25.1165 45.4865 25.1165C44.3289 25.1162 43.1857 24.8579 42.1385 24.3599C41.5088 24.0732 40.9266 23.6905 40.412 23.2252L40.1836 23.0512Z" fill="#1D1D1B"/>
<path opacity="0.5" d="M53.021 24.8782V10.2283H62.0951V13.3035H56.5712V15.9513H60.994V19.0228H56.5712V21.7916H62.3946V24.8631L53.021 24.8782Z" fill="#1D1D1B"/>
<path opacity="0.5" d="M64.9492 24.878V10.228H70.0012C70.9537 10.1867 71.9065 10.3043 72.8211 10.5761C74.5064 11.2342 75.4988 12.7283 75.4988 14.839C75.4988 16.4769 74.7086 18.1185 73.3305 18.8334V18.8902C73.5318 19.1714 73.7145 19.4658 73.8772 19.7715L76.7009 24.878H72.7387L70.166 19.9417H68.4994V24.878H64.9492ZM68.4994 16.8665H70.0424C71.1996 16.8665 71.8887 16.2121 71.8887 15.066C71.8887 13.8556 71.3831 13.3033 69.6978 13.3033H68.4994V16.8665Z" fill="#1D1D1B"/>
</g>
<g opacity="0.5">
<path opacity="0.5" d="M104.691 24.878V13.3033H100.294V10.228H112.652V13.3033H108.241V24.878H104.691Z" fill="#1D1D1B"/>
<path opacity="0.5" d="M115.581 12.1345C117.056 10.7485 118.996 9.97803 121.011 9.97803C123.026 9.97803 124.966 10.7485 126.441 12.1345C127.148 12.823 127.705 13.6515 128.079 14.5681C128.453 15.4846 128.635 16.4693 128.613 17.4604C128.613 19.4929 127.814 21.4421 126.391 22.8793C124.968 24.3165 123.038 25.1239 121.026 25.1239C119.014 25.1239 117.084 24.3165 115.661 22.8793C114.238 21.4421 113.439 19.4929 113.439 17.4604C113.414 16.4715 113.591 15.4881 113.96 14.5717C114.328 13.6553 114.88 12.8256 115.581 12.1345ZM118.24 20.5962C118.591 20.9887 119.02 21.3024 119.498 21.5172C119.977 21.7319 120.495 21.8429 121.019 21.8429C121.542 21.8429 122.06 21.7319 122.539 21.5172C123.018 21.3024 123.446 20.9887 123.797 20.5962C124.556 19.7347 124.958 18.6124 124.921 17.4604C124.938 16.9121 124.847 16.3658 124.655 15.8529C124.462 15.3401 124.171 14.8708 123.797 14.4722C123.44 14.0898 123.01 13.7851 122.532 13.5769C122.054 13.3687 121.539 13.2613 121.019 13.2613C120.498 13.2613 119.983 13.3687 119.506 13.5769C119.028 13.7851 118.597 14.0898 118.24 14.4722C117.49 15.2794 117.086 16.3536 117.116 17.4604C117.081 18.6121 117.483 19.7339 118.24 20.5962Z" fill="#1D1D1B"/>
<path opacity="0.5" d="M131.002 24.8783V10.2283H136.054C137.007 10.187 137.96 10.3045 138.874 10.5763C140.56 11.2345 141.552 12.7286 141.552 14.8393C141.552 16.4771 140.762 18.1188 139.384 18.8337V18.8904C139.585 19.1716 139.768 19.4661 139.93 19.7718L142.75 24.8934H138.807L136.245 19.942H134.579V24.8783H131.002ZM134.553 16.8667H136.096C137.253 16.8667 137.942 16.2124 137.942 15.0662C137.942 13.8558 137.436 13.3035 135.751 13.3035H134.553V16.8667Z" fill="#1D1D1B"/>
</g>
<path d="M15.8188 24.1214V9.47144H19.3691V21.0499H25.2936V24.1214H15.8188Z" fill="white"/>
<path d="M35.9854 24.1214L35.0903 21.0499H30.5664L29.6938 24.1214H26.0425L30.9746 9.47144H34.7196L39.6255 24.1214H35.9854ZM32.8583 12.8115H32.8209C32.5962 13.8782 32.4127 14.7028 32.2292 15.3307L31.3865 18.1789H34.2477L33.435 15.3307L32.8583 12.8115Z" fill="white"/>
<path d="M40.1836 22.2946L42.0561 19.5673L42.5616 19.9985C42.9555 20.2586 43.3701 20.4851 43.8012 20.6756C44.3417 20.9294 44.9281 21.0685 45.5239 21.0841C46.3553 21.0841 47.0481 20.7362 47.0481 19.9153C47.0481 19.034 45.4041 18.6482 43.7825 17.8689C42.1609 17.0897 40.5132 15.9776 40.5132 13.7308C40.4957 13.1143 40.6183 12.5019 40.8715 11.9407C41.1247 11.3794 41.5017 10.8842 41.9737 10.4929C43.0083 9.6409 44.3133 9.19614 45.6475 9.24087C46.5112 9.23179 47.3697 9.3778 48.1828 9.67209C48.7759 9.84185 49.3332 10.1201 49.8269 10.4929L50.3137 10.9014L48.8157 13.8329C48.6689 13.7036 48.5124 13.586 48.3476 13.4812C47.9979 13.2447 47.6205 13.0528 47.2241 12.91C46.7217 12.6727 46.1758 12.5439 45.6213 12.5317C44.7899 12.5317 44.0784 12.91 44.0784 13.6665C44.0784 14.3209 45.0933 14.8013 46.3703 15.3044C48.2428 15.9587 50.6508 17.1086 50.6133 19.8132C50.6211 20.4207 50.5021 21.023 50.264 21.5809C50.0259 22.1388 49.6741 22.6397 49.2314 23.0511C48.3177 23.9324 47.0631 24.3599 45.4865 24.3599C44.3289 24.3596 43.1857 24.1013 42.1385 23.6033C41.5088 23.3167 40.9266 22.9339 40.412 22.4686L40.1836 22.2946Z" fill="white"/>
<path d="M53.021 24.1214V9.47144H62.0951V12.5467H56.5712V15.1945H60.994V18.2659H56.5712V21.0348H62.3947V24.1062L53.021 24.1214Z" fill="white"/>
<path d="M64.9492 24.1214V9.47145H70.0012C70.9537 9.43012 71.9065 9.54771 72.8212 9.81947C74.5064 10.4776 75.4988 11.9717 75.4988 14.0824C75.4988 15.7203 74.7086 17.3619 73.3305 18.0768V18.1336C73.5319 18.4148 73.7145 18.7092 73.8772 19.0149L76.7009 24.1214H72.7388L70.166 19.1851H68.4994V24.1214H64.9492ZM68.4994 16.1099H70.0424C71.1996 16.1099 71.8887 15.4555 71.8887 14.3094C71.8887 13.099 71.3831 12.5467 69.6978 12.5467H68.4994V16.1099Z" fill="white"/>
<path d="M104.691 24.1214V12.5467H100.294V9.47144H112.652V12.5467H108.241V24.1214H104.691Z" fill="white"/>
<path d="M115.581 11.3782C117.056 9.99216 118.996 9.22168 121.011 9.22168C123.026 9.22168 124.966 9.99216 126.441 11.3782C127.148 12.0666 127.705 12.8952 128.079 13.8117C128.453 14.7283 128.635 15.713 128.613 16.704C128.613 18.7365 127.814 20.6858 126.391 22.123C124.968 23.5601 123.038 24.3676 121.026 24.3676C119.014 24.3676 117.084 23.5601 115.661 22.123C114.238 20.6858 113.439 18.7365 113.439 16.704C113.414 15.7152 113.591 14.7318 113.96 13.8154C114.328 12.8989 114.88 12.0692 115.581 11.3782ZM118.24 19.8398C118.591 20.2323 119.02 20.5461 119.498 20.7608C119.977 20.9756 120.495 21.0866 121.019 21.0866C121.542 21.0866 122.06 20.9756 122.539 20.7608C123.018 20.5461 123.446 20.2323 123.797 19.8398C124.556 18.9784 124.958 17.856 124.921 16.704C124.938 16.1557 124.847 15.6094 124.655 15.0966C124.462 14.5838 124.171 14.1145 123.797 13.7158C123.44 13.3334 123.01 13.0288 122.532 12.8206C122.054 12.6123 121.539 12.5049 121.019 12.5049C120.498 12.5049 119.983 12.6123 119.506 12.8206C119.028 13.0288 118.597 13.3334 118.24 13.7158C117.49 14.5231 117.086 15.5972 117.116 16.704C117.081 17.8558 117.483 18.9776 118.24 19.8398Z" fill="white"/>
<path d="M131.003 24.1214V9.47145H136.055C137.007 9.43012 137.96 9.54771 138.875 9.81947C140.56 10.4776 141.552 11.9717 141.552 14.0824C141.552 15.7203 140.762 17.3619 139.384 18.0768V18.1336C139.586 18.4148 139.768 18.7092 139.931 19.0149L142.751 24.1365H138.807L136.246 19.1852H134.579V24.1214H131.003ZM134.553 16.1099H136.096C137.253 16.1099 137.942 15.4555 137.942 14.3094C137.942 13.099 137.437 12.5467 135.752 12.5467H134.553V16.1099Z" fill="white"/>
</g>
<defs>
<linearGradient id="paint0_linear_105_2" x1="41.148" y1="33.1165" x2="41.148" y2="1.90642" gradientUnits="userSpaceOnUse">
<stop stop-color="#EF2A02"/>
<stop offset="0.15" stop-color="#CE0014"/>
<stop offset="1" stop-color="#F22E00"/>
</linearGradient>
<linearGradient id="paint1_linear_105_2" x1="120.909" y1="33.1165" x2="120.909" y2="1.90642" gradientUnits="userSpaceOnUse">
<stop stop-color="#0585CC"/>
<stop offset="0.17" stop-color="#4152A0"/>
<stop offset="1" stop-color="#0089CF"/>
</linearGradient>
<clipPath id="clip0_105_2">
<rect width="160" height="46" fill="white"/>
</clipPath>
</defs>
</svg>
