<svg width="153" height="58" viewBox="0 0 153 58" fill="none" xmlns="http://www.w3.org/2000/svg">
<g clip-path="url(#clip0_1178_238)">
<path d="M56.5268 52.9967C56.0591 53.3451 55.4895 53.5276 54.9074 53.5156V53.9574H54.1927V53.5156C53.61 53.5203 53.0412 53.3364 52.5705 52.991C52.3891 52.8276 52.2441 52.6277 52.1448 52.4042C52.0455 52.1807 51.9941 51.9387 51.9941 51.6939C51.9941 51.4491 52.0455 51.2071 52.1448 50.9836C52.2441 50.7601 52.3891 50.5601 52.5705 50.3968C53.0402 50.0491 53.6094 49.864 54.1927 49.8693V49.4446H54.9074V49.8693C55.4898 49.864 56.0582 50.0491 56.5268 50.3968C56.7064 50.5618 56.8497 50.7627 56.9478 50.9865C57.0459 51.2103 57.0966 51.4522 57.0966 51.6967C57.0966 51.9413 57.0459 52.1832 56.9478 52.407C56.8497 52.6308 56.7064 52.8316 56.5268 52.9967ZM53.1235 52.5434C53.437 52.7692 53.8101 52.8962 54.1956 52.9083V50.4823C53.2341 50.5564 52.752 50.9584 52.752 51.6967C52.7441 51.8572 52.7735 52.0173 52.838 52.1643C52.9025 52.3113 53.0003 52.4411 53.1235 52.5434ZM55.9908 52.5434C56.1132 52.4386 56.21 52.3071 56.2739 52.1588C56.3379 52.0106 56.3671 51.8496 56.3595 51.6882C56.3681 51.5264 56.339 51.3648 56.2745 51.2163C56.21 51.0679 56.1119 50.9366 55.988 50.8329C55.6728 50.6078 55.2969 50.4845 54.9103 50.4794V52.9055C55.2946 52.8972 55.6674 52.772 55.9795 52.5463L55.9908 52.5434Z" fill="#050607"/>
<path d="M59.3172 53.5726C58.9843 53.3952 58.7065 53.1289 58.5146 52.8029C58.3233 52.4675 58.2227 52.0876 58.2227 51.701C58.2227 51.3144 58.3233 50.9345 58.5146 50.5992C58.7065 50.2732 58.9843 50.0068 59.3172 49.8294C59.6721 49.6477 60.0648 49.553 60.463 49.553C60.8613 49.553 61.2539 49.6477 61.6088 49.8294C61.9405 50.0073 62.2179 50.2724 62.4115 50.5963C62.6011 50.9333 62.7008 51.3139 62.7008 51.701C62.7008 52.0882 62.6011 52.4687 62.4115 52.8057C62.2187 53.1303 61.9411 53.3955 61.6088 53.5726C61.2539 53.7543 60.8613 53.849 60.463 53.849C60.0648 53.849 59.6721 53.7543 59.3172 53.5726ZM61.2118 52.9825C61.43 52.8587 61.6105 52.6773 61.7336 52.4579C61.8582 52.2258 61.9235 51.9662 61.9235 51.7024C61.9235 51.4387 61.8582 51.1791 61.7336 50.947C61.6113 50.7262 61.4307 50.5437 61.2118 50.4196C60.9813 50.296 60.7242 50.2314 60.463 50.2314C60.2019 50.2314 59.9447 50.296 59.7143 50.4196C59.4947 50.5428 59.3139 50.7256 59.1925 50.947C59.0678 51.1791 59.0026 51.4387 59.0026 51.7024C59.0026 51.9662 59.0678 52.2258 59.1925 52.4579C59.3148 52.6779 59.4954 52.8595 59.7143 52.9825C59.9447 53.106 60.2019 53.1706 60.463 53.1706C60.7242 53.1706 60.9813 53.106 61.2118 52.9825Z" fill="#050607"/>
<path d="M66.8444 49.7895C67.0958 49.8965 67.31 50.0761 67.4598 50.3055C67.599 50.5462 67.6724 50.8196 67.6724 51.0981C67.6724 51.3765 67.599 51.6499 67.4598 51.8906C67.31 52.1201 67.0958 52.2997 66.8444 52.4066C66.5466 52.5324 66.2257 52.5936 65.9028 52.5862H64.964V53.7921H64.1841V49.6042H65.8858C66.2147 49.5976 66.5413 49.6608 66.8444 49.7895ZM66.6345 51.7138C66.7223 51.6384 66.7915 51.5435 66.8368 51.4367C66.8821 51.3299 66.9021 51.214 66.8954 51.0981C66.9017 50.9822 66.8814 50.8664 66.8362 50.7597C66.791 50.6529 66.7219 50.558 66.6345 50.4823C66.41 50.325 66.1389 50.2496 65.8659 50.2685H64.964V51.9276H65.8659C66.1389 51.9466 66.41 51.8711 66.6345 51.7138Z" fill="#050607"/>
<path d="M69.8736 53.5726C69.543 53.3953 69.2672 53.13 69.0766 52.8057C68.8878 52.4685 68.7886 52.088 68.7886 51.701C68.7886 51.314 68.8878 50.9336 69.0766 50.5963C69.2699 50.2732 69.5462 50.0083 69.8764 49.8295C70.2244 49.6392 70.6148 49.5411 71.0109 49.5444C71.3308 49.5403 71.6482 49.6014 71.9439 49.724C72.2192 49.837 72.4634 50.015 72.6558 50.2428L72.1566 50.7132C72.0177 50.5562 71.8467 50.4311 71.6554 50.3465C71.464 50.2619 71.2568 50.2197 71.0477 50.2229C70.7806 50.218 70.5168 50.2828 70.282 50.411C70.0595 50.5321 69.8757 50.714 69.7516 50.9356C69.627 51.1687 69.5618 51.4293 69.5618 51.6939C69.5618 51.9586 69.627 52.2191 69.7516 52.4522C69.8766 52.6724 70.0603 52.8531 70.282 52.9739C70.5168 53.1021 70.7806 53.1669 71.0477 53.1621C71.2573 53.1653 71.4651 53.1226 71.6566 53.0369C71.8481 52.9512 72.0187 52.8247 72.1566 52.666L72.6558 53.145C72.4613 53.3719 72.2165 53.5496 71.9411 53.6638C71.6441 53.7852 71.3258 53.8453 71.0052 53.8406C70.6115 53.8486 70.2223 53.7564 69.8736 53.5726Z" fill="#050607"/>
<path d="M76.6832 52.8228H74.6043L74.193 53.7921H73.3989L75.2679 49.6042H76.028L77.9055 53.7836H77.0972L76.6832 52.8228ZM76.4279 52.2156L75.6423 50.3882L74.8652 52.2156H76.4279Z" fill="#050607"/>
<path d="M79.1816 49.6043H79.9446V52.5691L82.1766 49.6043H82.9026V53.7836H82.1425V50.8301L79.9105 53.7921H79.1901L79.1816 49.6043ZM80.2253 49.1025C80.1317 49.0245 80.0573 48.9258 80.0081 48.814C79.9589 48.7021 79.9361 48.5804 79.9417 48.4583H80.4806C80.4789 48.5219 80.491 48.5852 80.516 48.6438C80.5409 48.7023 80.5782 48.7548 80.6252 48.7975C80.7384 48.8851 80.8798 48.9277 81.0223 48.9172C81.1654 48.9256 81.3069 48.8832 81.4222 48.7975C81.4709 48.7557 81.5099 48.7036 81.5363 48.645C81.5628 48.5864 81.5761 48.5226 81.5753 48.4583H82.1085C82.1128 48.5798 82.0895 48.7007 82.0403 48.8119C81.9912 48.923 81.9175 49.0214 81.8249 49.0997C81.5809 49.2444 81.3027 49.3207 81.0194 49.3207C80.7361 49.3207 80.458 49.2444 80.214 49.0997L80.2253 49.1025Z" fill="#050607"/>
<path d="M87.7239 50.2685H86.3342V53.7921H85.5685V50.2685H84.1958V49.6042H87.7239V50.2685Z" fill="#050607"/>
<path d="M94.3039 50.2685H92.9255V53.7921H92.1598V50.2685H90.7871V49.6042H94.3039V50.2685Z" fill="#050607"/>
<path d="M98.7223 53.1393V53.7921H95.6025V49.6042H98.6372V50.2542H96.3683V51.3404H98.3734V51.979H96.3683V53.1193L98.7223 53.1393Z" fill="#050607"/>
<path d="M100.651 49.6042L101.632 51.0011L102.611 49.6042H103.515L102.12 51.5998L103.629 53.775H102.713L101.621 52.2698L100.546 53.7921H99.6553L101.158 51.6483L99.7404 49.6128L100.651 49.6042Z" fill="#050607"/>
<path d="M108.473 49.6042V53.7836H107.701V51.9989H105.552V53.7921H104.78V49.6042H105.552V51.329H107.701V49.6042H108.473Z" fill="#050607"/>
<path d="M111.051 53.5726C110.719 53.3952 110.442 53.1288 110.251 52.8029C110.06 52.4675 109.959 52.0876 109.959 51.701C109.959 51.3144 110.06 50.9346 110.251 50.5992C110.442 50.2733 110.719 50.0069 111.051 49.8295C111.407 49.6477 111.8 49.553 112.198 49.553C112.597 49.553 112.99 49.6477 113.346 49.8295C113.677 50.0067 113.954 50.272 114.145 50.5963C114.337 50.9327 114.438 51.3135 114.438 51.701C114.438 52.0886 114.337 52.4694 114.145 52.8057C113.955 53.1308 113.678 53.3962 113.346 53.5726C112.99 53.7544 112.597 53.8491 112.198 53.8491C111.8 53.8491 111.407 53.7544 111.051 53.5726ZM112.946 52.9825C113.165 52.8587 113.346 52.6774 113.47 52.4579C113.595 52.2258 113.66 51.9662 113.66 51.7025C113.66 51.4387 113.595 51.1791 113.47 50.947C113.347 50.7261 113.166 50.5436 112.946 50.4196C112.716 50.2961 112.459 50.2314 112.198 50.2314C111.938 50.2314 111.681 50.2961 111.451 50.4196C111.231 50.5428 111.049 50.7255 110.926 50.947C110.802 51.1791 110.737 51.4387 110.737 51.7025C110.737 51.9662 110.802 52.2258 110.926 52.4579C111.05 52.678 111.231 52.8596 111.451 52.9825C111.681 53.106 111.938 53.1706 112.198 53.1706C112.459 53.1706 112.716 53.106 112.946 52.9825Z" fill="#050607"/>
<path d="M119.361 49.6042V53.7836H118.601V50.2685H116.962L116.936 51.3147C116.928 51.793 116.881 52.2698 116.794 52.7402C116.746 53.0435 116.621 53.3293 116.431 53.5697C116.345 53.6657 116.238 53.7411 116.119 53.7904C115.999 53.8397 115.871 53.8617 115.742 53.8548C115.601 53.8492 115.46 53.8301 115.322 53.7978L115.376 53.1222C115.433 53.139 115.493 53.1467 115.552 53.145C115.674 53.1423 115.792 53.0979 115.886 53.0192C115.979 52.9404 116.044 52.832 116.068 52.7116C116.191 52.2678 116.254 51.8095 116.255 51.349L116.315 49.6185L119.361 49.6042Z" fill="#050607"/>
<path d="M121.945 53.5726C121.612 53.3944 121.335 53.1282 121.142 52.8029C120.952 52.4669 120.853 52.0873 120.853 51.701C120.853 51.3147 120.952 50.9351 121.142 50.5992C121.335 50.2738 121.612 50.0076 121.945 49.8294C122.299 49.6477 122.692 49.553 123.09 49.553C123.489 49.553 123.881 49.6477 124.236 49.8294C124.568 50.0066 124.846 50.2718 125.039 50.5963C125.23 50.9327 125.331 51.3135 125.331 51.701C125.331 52.0886 125.23 52.4694 125.039 52.8057C124.847 53.1309 124.569 53.3963 124.236 53.5726C123.881 53.7543 123.489 53.849 123.09 53.849C122.692 53.849 122.299 53.7543 121.945 53.5726ZM123.839 52.9825C124.057 52.8587 124.238 52.6773 124.361 52.4579C124.486 52.2258 124.551 51.9662 124.551 51.7024C124.551 51.4387 124.486 51.1791 124.361 50.947C124.239 50.7262 124.058 50.5437 123.839 50.4196C123.609 50.296 123.352 50.2314 123.09 50.2314C122.829 50.2314 122.572 50.296 122.342 50.4196C122.123 50.5437 121.942 50.7262 121.82 50.947C121.695 51.1791 121.63 51.4387 121.63 51.7024C121.63 51.9662 121.695 52.2258 121.82 52.4579C121.943 52.6773 122.123 52.8587 122.342 52.9825C122.572 53.106 122.829 53.1706 123.09 53.1706C123.352 53.1706 123.609 53.106 123.839 52.9825Z" fill="#050607"/>
<path d="M129.642 50.2685H127.58V53.7921H126.82V49.6042H129.642V50.2685Z" fill="#050607"/>
<path d="M130.935 49.6042H131.684V52.5691L133.919 49.6042H134.636V53.7836H133.876V50.8301L131.644 53.7921H130.924L130.935 49.6042Z" fill="#050607"/>
<path d="M136.454 49.6042H137.214V52.5691L139.446 49.6042H140.167V53.7836H139.404V50.8301L137.172 53.7921H136.454V49.6042Z" fill="#050607"/>
<path d="M22.272 53.5384L7.26045 39.0163C4.77985 36.399 3.39837 32.9213 3.40333 29.3064V9.02275L22.1217 3.90552L41.9206 9.01419V29.1496C41.9316 32.8583 40.4804 36.4203 37.8849 39.0562L22.272 53.5384ZM4.73064 10.0405V29.3064C4.7239 32.5695 5.9658 35.7102 8.19921 38.0783L22.2919 51.7081L36.9574 38.084C39.2897 35.7023 40.5923 32.4915 40.582 29.1496V10.049L22.1245 5.28247L4.73064 10.0405Z" fill="url(#paint0_linear_1178_238)"/>
<path d="M17.7484 43.6176L12.4137 38.5888C11.0234 37.3924 9.84156 35.9713 8.91674 34.3838C7.57338 32.0758 6.86107 29.4518 6.85205 26.7778V11.563L12.5243 10.3628V26.6724C12.5135 27.9375 12.7346 29.1938 13.1766 30.3784C13.8323 32.0897 14.905 33.6081 16.2963 34.7944L17.8222 36.1143H17.5385L30.6698 25.3724V31.8979C30.6698 31.8979 17.7541 43.6176 17.7484 43.6176Z" fill="url(#paint1_linear_1178_238)"/>
<path d="M22.6182 48.5067L18.7696 44.8006C18.7696 44.8006 27.0312 37.6308 31.4527 33.3888C32.278 32.5963 32.8283 31.761 32.8283 30.2529V20.4432C32.8283 20.4432 32.8283 20.4432 32.8112 20.4432L19.4531 30.9599L19.4049 30.9941C18.9915 31.2833 18.5097 31.458 18.0078 31.5005C17.506 31.543 17.0018 31.452 16.5461 31.2364C16.1014 31.0349 15.7235 30.7094 15.4571 30.2987C15.1907 29.8879 15.047 29.409 15.043 28.9187V10.3883H27.9048H33.2508C33.3271 10.3847 33.4026 10.4054 33.4665 10.4474C33.5305 10.4894 33.5796 10.5506 33.6069 10.6223C33.6343 10.6939 33.6384 10.7725 33.6188 10.8467C33.5991 10.9208 33.5567 10.9869 33.4976 11.0355L27.9161 15.5227H20.4911V23.4138C20.4911 23.4138 20.4911 23.428 20.5082 23.4138L33.7245 13.0083C34.1111 12.7285 34.5587 12.5458 35.0298 12.4754C35.501 12.405 35.9821 12.4489 36.433 12.6034C36.9595 12.7772 37.4188 13.1123 37.7464 13.5617C38.0739 14.0111 38.2533 14.5522 38.2594 15.1093V30.2728C38.2726 31.5453 38.0165 32.806 37.5079 33.9714C36.9994 35.1368 36.2502 36.1801 35.3099 37.0321C30.8742 41.2856 22.6182 48.5067 22.6182 48.5067Z" fill="url(#paint2_linear_1178_238)"/>
<path d="M22.2093 58L4.54025 41.2571C1.62001 38.1597 -0.00453226 34.0528 0.00246391 29.7854V6.02664L22.0278 0L45.3179 6.01239V29.6001C45.3287 33.9861 43.6127 38.1982 40.5448 41.317L40.4965 41.3626L22.2093 58ZM6.19654 39.6264L22.249 54.827L38.9197 39.6521C41.5471 36.9695 43.0157 33.3532 43.0065 29.5887V7.81411L22.0448 2.39754L2.31106 7.79985V29.7854C2.30761 33.4443 3.69793 36.9657 6.19654 39.6264Z" fill="url(#paint3_linear_1178_238)"/>
<path d="M52.312 5.15151H58.3274V18.3964H66.382V23.0917H52.312V5.15151ZM80.452 19.9558H73.6708L72.474 23.0917H66.3565L74.1558 5.15721H80.0663L87.8684 23.0917H81.6488L80.452 19.9558ZM78.7957 15.5998L77.0628 11.0926L75.3271 15.5998H78.7957ZM91.1696 22.992C89.957 22.7324 88.7936 22.279 87.7238 21.6492L89.6608 17.2447C90.5595 17.7597 91.519 18.1591 92.5168 18.4335C93.5019 18.7234 94.5222 18.8749 95.5486 18.8839C96.1534 18.9189 96.7593 18.8356 97.3325 18.6387C97.4866 18.5887 97.6211 18.4914 97.7173 18.3605C97.8134 18.2296 97.8663 18.0716 97.8686 17.9089C97.8686 17.5355 97.636 17.2533 97.168 17.0537C96.4168 16.7876 95.6458 16.5817 94.8623 16.4379C93.6922 16.2094 92.539 15.9008 91.4107 15.5142C90.4887 15.1766 89.665 14.6132 89.0142 13.875C88.3373 13.1148 87.9979 12.0857 87.996 10.7876C87.9875 9.68927 88.3163 8.61506 88.9376 7.71154C89.6477 6.72712 90.6271 5.9714 91.7567 5.53637C93.2018 4.97106 94.7444 4.70068 96.2945 4.74099C97.5134 4.73603 98.729 4.86702 99.9191 5.13155C101.011 5.36259 102.062 5.75555 103.039 6.29754L101.224 10.685C99.4747 9.7955 97.8184 9.35172 96.2548 9.35362C94.6912 9.35552 93.9178 9.73088 93.9349 10.4797C93.9349 10.8389 94.1646 11.1069 94.624 11.2865C95.3638 11.5376 96.1226 11.7282 96.8929 11.8566C98.061 12.0642 99.2119 12.3596 100.336 12.7404C101.264 13.0766 102.095 13.6377 102.755 14.3739C103.445 15.1341 103.789 16.1595 103.788 17.45C103.798 18.5436 103.467 19.6132 102.843 20.5089C102.132 21.4913 101.154 22.2473 100.027 22.6869C98.5838 23.2605 97.0403 23.5349 95.4891 23.4937C94.0348 23.4969 92.5852 23.3295 91.1696 22.9948V22.992ZM120.419 18.5304V23.0917H105.591V5.15151H120.095V9.71282H111.496V11.8139H119.04V16.1671H111.496V18.5304H120.419ZM130.382 18.5817H128.751V23.0917H122.736V5.15151H131.326C132.803 5.11876 134.271 5.39747 135.634 5.96969C136.798 6.4514 137.787 7.27864 138.47 8.34081C139.154 9.40299 139.498 10.6495 139.457 11.9137C139.485 13.0924 139.184 14.2555 138.59 15.2719C137.986 16.2529 137.12 17.0433 136.091 17.5526L139.84 23.0917H133.416L130.382 18.5817ZM132.778 10.3714C132.37 10.0036 131.76 9.8183 130.943 9.8183H128.751V14.0147H130.943C131.76 14.0147 132.361 13.8323 132.778 13.4645C132.986 13.2662 133.148 13.0246 133.253 12.7567C133.358 12.4888 133.403 12.201 133.385 11.9137C133.403 11.6267 133.357 11.3395 133.252 11.0721C133.148 10.8047 132.986 10.5636 132.778 10.3657V10.3714Z" fill="url(#paint4_linear_1178_238)"/>
<path d="M54.7996 45.3736C53.5837 45.1159 52.4173 44.6625 51.3452 44.0309L53.2823 39.6264C54.1798 40.1423 55.1384 40.5427 56.1354 40.818C57.1216 41.107 58.1428 41.2576 59.1701 41.2656C59.7747 41.3009 60.3804 41.2186 60.954 41.0233C61.1076 40.9725 61.2416 40.875 61.3377 40.7442C61.4337 40.6135 61.4869 40.4559 61.49 40.2935C61.49 39.9171 61.2546 39.6349 60.7895 39.4382C60.0374 39.1719 59.2654 38.9659 58.4809 38.8224C57.3144 38.5895 56.165 38.2771 55.0407 37.8874C54.1178 37.5514 53.2937 36.9878 52.6442 36.2481C51.9654 35.4879 51.626 34.4588 51.626 33.1607C51.6152 32.0664 51.94 30.9953 52.5562 30.0932C53.2705 29.1051 54.2562 28.3481 55.3924 27.9152C56.8375 27.3501 58.38 27.0797 59.9301 27.1198C61.1434 27.1194 62.3531 27.2523 63.5377 27.5161C64.6287 27.7493 65.6798 28.1422 66.6574 28.682L64.8536 33.0695C63.1028 32.1819 61.4465 31.7381 59.8848 31.7381C58.323 31.7381 57.5497 32.1182 57.5648 32.8785C57.5648 33.2377 57.7945 33.5056 58.2512 33.6852C58.9911 33.936 59.7498 34.1267 60.5201 34.2554C61.6878 34.4602 62.838 34.7557 63.9603 35.1392C64.8936 35.4699 65.7306 36.0282 66.3965 36.7641C67.0828 37.5244 67.4269 38.5497 67.4288 39.8402C67.4386 40.9347 67.1085 42.005 66.4844 42.902C65.77 43.8816 64.7933 44.6369 63.6681 45.08C62.2247 45.6522 60.6815 45.9265 59.1304 45.8868C57.6718 45.8862 56.2183 45.714 54.7996 45.3736ZM72.8316 32.2142H67.6075V27.5303H84.0712V32.2142H78.847V45.4591H72.8316V32.2142ZM89.5505 44.6638C88.057 43.8909 86.8041 42.7195 85.9293 41.2779C85.0546 39.8364 84.5918 38.1804 84.5918 36.4919C84.5918 34.8033 85.0546 33.1474 85.9293 31.7059C86.8041 30.2643 88.057 29.0928 89.5505 28.32C91.1613 27.5265 92.9313 27.114 94.725 27.114C96.5188 27.114 98.2888 27.5265 99.8995 28.32C101.392 29.0935 102.644 30.2653 103.518 31.7067C104.392 33.1482 104.855 34.8037 104.855 36.4919C104.855 38.18 104.392 39.8356 103.518 41.277C102.644 42.7185 101.392 43.8902 99.8995 44.6638C98.2888 45.4572 96.5188 45.8697 94.725 45.8697C92.9313 45.8697 91.1613 45.4572 89.5505 44.6638ZM96.7514 40.4246C97.3647 40.046 97.863 39.5057 98.1922 38.8623C98.545 38.1224 98.7281 37.3124 98.7281 36.4919C98.7281 35.6714 98.545 34.8613 98.1922 34.1214C97.8638 33.4776 97.3653 32.9371 96.7514 32.5592C96.1363 32.1988 95.437 32.0089 94.725 32.0089C94.013 32.0089 93.3138 32.1988 92.6986 32.5592C92.0848 32.9371 91.5863 33.4776 91.2579 34.1214C90.9069 34.8618 90.7248 35.6717 90.7248 36.4919C90.7248 37.3121 90.9069 38.1219 91.2579 38.8623C91.587 39.5057 92.0853 40.046 92.6986 40.4246C93.3138 40.785 94.013 40.9748 94.725 40.9748C95.437 40.9748 96.1363 40.785 96.7514 40.4246ZM114.633 40.9491H113V45.4591H106.984V27.5303H115.575C117.052 27.497 118.52 27.7768 119.883 28.3514C121.039 28.8368 122.026 29.6563 122.719 30.7061C123.396 31.7777 123.742 33.0264 123.714 34.2953C123.741 35.4732 123.441 36.6352 122.847 37.6507C122.243 38.6307 121.379 39.4209 120.351 39.9314L124.097 45.4648H117.665L114.633 40.9491ZM117.027 32.7388C116.62 32.3701 116.009 32.1867 115.192 32.1886H113V36.3878H115.192C116.009 36.3878 116.62 36.2044 117.027 35.8376C117.42 35.4186 117.639 34.8643 117.639 34.2882C117.639 33.7121 117.42 33.1578 117.027 32.7388ZM140.808 40.8978V45.4591H125.975V27.5303H140.476V32.0916H131.888V34.1927H139.432V38.5459H131.888V40.9035L140.808 40.8978Z" fill="url(#paint5_linear_1178_238)"/>
<path d="M141.817 1.35699H139.965V0H145.354V1.35699H143.513V6.0523H141.812L141.817 1.35699ZM151.435 6.0523L151.418 2.85082L149.869 5.46218H149.112L147.566 2.93065V6.06655H145.992V0H147.393L149.512 3.49511L151.582 0H152.983L153 6.0523H151.435Z" fill="url(#paint6_linear_1178_238)"/>
</g>
<defs>
<linearGradient id="paint0_linear_1178_238" x1="3.40333" y1="28.7219" x2="41.915" y2="28.7219" gradientUnits="userSpaceOnUse">
<stop stop-color="#1785C8"/>
<stop offset="0.17" stop-color="#4253A0"/>
<stop offset="1" stop-color="#1589CA"/>
</linearGradient>
<linearGradient id="paint1_linear_1178_238" x1="18.9339" y1="35.7209" x2="18.5356" y2="12.8516" gradientUnits="userSpaceOnUse">
<stop stop-color="#EE3024"/>
<stop offset="0.15" stop-color="#CD2027"/>
<stop offset="1" stop-color="#EE3624"/>
</linearGradient>
<linearGradient id="paint2_linear_1178_238" x1="29.8418" y1="38.201" x2="25.6454" y2="17.1274" gradientUnits="userSpaceOnUse">
<stop stop-color="#1785C8"/>
<stop offset="0.17" stop-color="#4253A0"/>
<stop offset="1" stop-color="#1589CA"/>
</linearGradient>
<linearGradient id="paint3_linear_1178_238" x1="-0.000372208" y1="28.9986" x2="45.3179" y2="28.9986" gradientUnits="userSpaceOnUse">
<stop stop-color="#EE3024"/>
<stop offset="0.15" stop-color="#CD2027"/>
<stop offset="1" stop-color="#EE3624"/>
</linearGradient>
<linearGradient id="paint4_linear_1178_238" x1="96.0761" y1="26.3901" x2="96.0761" y2="6.81068" gradientUnits="userSpaceOnUse">
<stop stop-color="#EE3024"/>
<stop offset="0.15" stop-color="#CD2027"/>
<stop offset="1" stop-color="#EE3624"/>
</linearGradient>
<linearGradient id="paint5_linear_1178_238" x1="96.689" y1="50.3255" x2="95.5457" y2="29.1531" gradientUnits="userSpaceOnUse">
<stop stop-color="#1785C8"/>
<stop offset="0.17" stop-color="#4253A0"/>
<stop offset="1" stop-color="#1589CA"/>
</linearGradient>
<linearGradient id="paint6_linear_1178_238" x1="146.922" y1="8.95159" x2="146.401" y2="-0.592679" gradientUnits="userSpaceOnUse">
<stop stop-color="#EE3024"/>
<stop offset="0.15" stop-color="#CD2027"/>
<stop offset="1" stop-color="#EE3624"/>
</linearGradient>
<clipPath id="clip0_1178_238">
<rect width="153" height="58" fill="white"/>
</clipPath>
</defs>
</svg>
