<svg width="24" height="24" viewBox="0 0 24 24" fill="none" xmlns="http://www.w3.org/2000/svg">
<g clip-path="url(#clip0_1473_69)">
<path d="M7.59043 19.39C9.19206 19.39 10.4904 18.0916 10.4904 16.49C10.4904 14.8883 9.19206 13.59 7.59043 13.59C5.9888 13.59 4.69043 14.8883 4.69043 16.49C4.69043 18.0916 5.9888 19.39 7.59043 19.39Z" stroke="white" stroke-width="1.3" stroke-linecap="round" stroke-linejoin="round"/>
<path d="M9.5498 14.35L22.3498 1.69995" stroke="white" stroke-width="1.3" stroke-linecap="round" stroke-linejoin="round"/>
<path d="M2.38965 0.890015C2.38965 0.890015 3.18965 6.83001 7.58965 6.83001H13.1096" stroke="white" stroke-width="1.3" stroke-linecap="round" stroke-linejoin="round"/>
<path d="M5.2998 0.650024C5.2998 0.650024 5.3998 4.15002 9.7898 4.15002H14.9898" stroke="white" stroke-width="1.3" stroke-linecap="round" stroke-linejoin="round"/>
<path d="M18.6599 9.32996C19.06 9.80002 19.343 10.3581 19.486 10.9586C19.6289 11.559 19.6276 12.1848 19.4823 12.7847C19.337 13.3846 19.0517 13.9415 18.6498 14.41C18.2478 14.8785 17.7407 15.2451 17.1699 15.48" stroke="white" stroke-width="1.3" stroke-linecap="round" stroke-linejoin="round"/>
<path d="M20.7399 7.69995C20.7399 7.69995 26.0999 14.36 17.6299 18.52" stroke="white" stroke-width="1.3" stroke-linecap="round" stroke-linejoin="round"/>
<path d="M7.58984 13.11V9.70996" stroke="white" stroke-width="1.3" stroke-linecap="round" stroke-linejoin="round"/>
<path d="M7.58984 23.05V19.39" stroke="white" stroke-width="1.3" stroke-linecap="round" stroke-linejoin="round"/>
<path d="M3.62988 20.46L5.29988 18.78" stroke="white" stroke-width="1.3" stroke-linecap="round" stroke-linejoin="round"/>
<path d="M0.650391 16.49H4.45039" stroke="white" stroke-width="1.3" stroke-linecap="round" stroke-linejoin="round"/>
<path d="M3.5 12.3199L5.05 13.8799" stroke="white" stroke-width="1.3" stroke-linecap="round" stroke-linejoin="round"/>
<path d="M10.1104 19.13L11.7004 20.72" stroke="white" stroke-width="1.3" stroke-linecap="round" stroke-linejoin="round"/>
<path d="M10.6797 16.49H14.3397" stroke="white" stroke-width="1.3" stroke-linecap="round" stroke-linejoin="round"/>
</g>
<defs>
<clipPath id="clip0_1473_69">
<rect width="24" height="24" fill="white"/>
</clipPath>
</defs>
</svg>
