<svg width="24" height="24" viewBox="0 0 24 24" fill="none" xmlns="http://www.w3.org/2000/svg">
<path d="M17.08 12.49C17.34 12.74 18.52 13.71 18.83 13.92C17.8268 14.6001 17.0449 15.5593 16.5811 16.6789C16.1172 17.7986 15.9917 19.0297 16.22 20.22C15.0283 19.9935 13.7965 20.1199 12.6756 20.5835C11.5547 21.0471 10.5935 21.8279 9.91 22.83C9.22903 21.8278 8.26973 21.0466 7.1503 20.5829C6.03088 20.1191 4.80023 19.993 3.61 20.22C3.83702 19.0298 3.71087 17.7991 3.24711 16.6797C2.78335 15.5603 2.00223 14.601 1 13.92C2.00115 13.2356 2.78118 12.2743 3.24471 11.1537C3.70824 10.0331 3.83517 8.80163 3.61 7.61C4.80023 7.83702 6.03088 7.71088 7.1503 7.24711C8.26973 6.78335 9.22903 6.00223 9.91 5C10.4817 5.63836 11.1001 6.23333 11.76 6.78" stroke="white" stroke-width="1.3" stroke-linecap="round" stroke-linejoin="round"/>
<path d="M13.1797 14.3199C13.0143 14.9074 12.6939 15.4396 12.252 15.8605C11.8101 16.2815 11.2631 16.5758 10.6682 16.7125C10.0734 16.8491 9.45279 16.8232 8.87146 16.6373C8.29013 16.4515 7.76954 16.1126 7.36433 15.6562C6.95913 15.1998 6.68424 14.6427 6.56851 14.0435C6.45279 13.4442 6.5005 12.8249 6.70664 12.2504C6.91278 11.676 7.26974 11.1676 7.74007 10.7787C8.2104 10.3897 8.77675 10.1345 9.37968 10.0399" stroke="white" stroke-width="1.3" stroke-linecap="round" stroke-linejoin="round"/>
<path d="M9.91992 13.41L15.5399 7.77002" stroke="white" stroke-width="1.3" stroke-linecap="round" stroke-linejoin="round"/>
<path d="M18.6595 1L14.7695 5C14.5949 5.54136 14.5978 6.12433 14.7776 6.66397C14.9575 7.2036 15.305 7.67168 15.7695 8C17.4395 9.45 18.6295 8.52 18.6295 8.52" stroke="white" stroke-width="1.3" stroke-linecap="round" stroke-linejoin="round"/>
<path d="M17.4095 2.41992C17.3981 3.3227 17.7381 4.19455 18.3576 4.85135C18.9771 5.50815 19.8276 5.89848 20.7295 5.93992L22.1694 4.71992" stroke="white" stroke-width="1.3" stroke-linecap="round" stroke-linejoin="round"/>
</svg>
