<svg width="24" height="24" viewBox="0 0 24 24" fill="none" xmlns="http://www.w3.org/2000/svg">
<g clip-path="url(#clip0_1473_3)">
<path d="M14.3795 1H10.0195V12.13H14.3795V1Z" stroke="white" stroke-width="1.3" stroke-linecap="round" stroke-linejoin="round"/>
<path d="M2.09 19.56V8.55999L1 6.96999V4.85999H4.92V14.44L1 21.27V23.66H12.2" stroke="white" stroke-width="1.3" stroke-linejoin="round"/>
<path d="M22.3192 19.56V8.55999L23.4092 6.96999V4.85999H19.4792V14.44L23.4092 21.27V23.66H12.1992" stroke="white" stroke-width="1.3" stroke-linejoin="round"/>
<path d="M5.76953 8.47998H10.0195" stroke="white" stroke-width="1.3" stroke-linecap="round" stroke-linejoin="round"/>
<path d="M14.75 8.47998H19.01" stroke="white" stroke-width="1.3" stroke-linecap="round" stroke-linejoin="round"/>
<path d="M7.06934 14.87H9.80934" stroke="white" stroke-width="1.3" stroke-linecap="round" stroke-linejoin="round"/>
<path d="M17.3298 14.87H14.5898" stroke="white" stroke-width="1.3" stroke-linecap="round" stroke-linejoin="round"/>
<path d="M12.1992 17.73V20.47" stroke="white" stroke-width="1.3" stroke-linecap="round" stroke-linejoin="round"/>
<path d="M12.1992 12.64V14.7" stroke="white" stroke-width="1.3" stroke-linecap="round" stroke-linejoin="round"/>
<path d="M10.1295 17L8.18945 18.94" stroke="white" stroke-width="1.3" stroke-linecap="round" stroke-linejoin="round"/>
<path d="M14.4297 17L16.3697 18.94" stroke="white" stroke-width="1.3" stroke-linecap="round" stroke-linejoin="round"/>
</g>
<defs>
<clipPath id="clip0_1473_3">
<rect width="24" height="24" fill="white"/>
</clipPath>
</defs>
</svg>
