<svg width="24" height="24" viewBox="0 0 24 24" fill="none" xmlns="http://www.w3.org/2000/svg">
<g clip-path="url(#clip0_1473_58)">
<path d="M10.1595 18.19C8.9638 18.1971 7.78982 18.5104 6.74953 19.1C6.14695 18.0709 5.29382 17.2109 4.26953 16.6C4.86098 15.5636 5.17768 14.3933 5.18954 13.2C6.38188 13.1912 7.5522 12.878 8.58953 12.29C9.19594 13.3196 10.0524 14.1795 11.0795 14.79C10.4881 15.8264 10.1714 16.9968 10.1595 18.19Z" stroke="white" stroke-width="1.3" stroke-linecap="round" stroke-linejoin="round"/>
<path d="M11.71 8.00999C11.676 7.8365 11.679 7.6578 11.7186 7.48552C11.7582 7.31323 11.8337 7.15121 11.94 7.00999C12.6 6.20999 14.37 6.58999 15.94 7.84999C17.51 9.10999 18.19 10.77 17.53 11.57C16.87 12.37 15.59 12.08 14.24 11.23" stroke="white" stroke-width="1.3" stroke-linecap="round" stroke-linejoin="round"/>
<path d="M19.4302 9.37004C20.0802 8.57004 19.3702 6.91004 17.8402 5.65004C16.3102 4.39004 14.5302 4.01004 13.8402 4.81004L11.9902 6.88004" stroke="white" stroke-width="1.3" stroke-linecap="round" stroke-linejoin="round"/>
<path d="M13.9104 3.21995C13.8596 2.90892 13.8723 2.5908 13.948 2.28485C14.0236 1.97889 14.1605 1.69146 14.3504 1.43995C15.4704 0.0699484 18.2804 0.529948 20.6304 2.43995C22.9804 4.34995 23.9704 7.03995 22.8504 8.43995C22.6175 8.7122 22.3177 8.91901 21.9804 9.03995" stroke="white" stroke-width="1.3" stroke-linecap="round" stroke-linejoin="round"/>
<path d="M10.4404 12.86L14.4004 8.79004" stroke="white" stroke-width="1.3" stroke-linecap="round" stroke-linejoin="round"/>
<path d="M3.07008 10.83L1.83008 8.79004" stroke="white" stroke-width="1.3" stroke-linecap="round" stroke-linejoin="round"/>
<path d="M13.5699 22.08L12.4199 20.59" stroke="white" stroke-width="1.3" stroke-linecap="round" stroke-linejoin="round"/>
<path d="M1.64039 17.3199L0.650391 17.4799" stroke="white" stroke-width="1.3" stroke-linecap="round" stroke-linejoin="round"/>
<path d="M9.01953 9.19996L9.29953 6.82996" stroke="white" stroke-width="1.3" stroke-linecap="round" stroke-linejoin="round"/>
<path d="M6.05957 22.5601L6.15957 21.6801" stroke="white" stroke-width="1.3" stroke-linecap="round" stroke-linejoin="round"/>
</g>
<defs>
<clipPath id="clip0_1473_58">
<rect width="24" height="24" fill="white"/>
</clipPath>
</defs>
</svg>
