<svg width="24" height="24" viewBox="0 0 24 24" fill="none" xmlns="http://www.w3.org/2000/svg">
<path d="M21.1792 3.90364C20.8953 4.72139 20.3751 5.43642 19.6843 5.95806C18.9935 6.4797 18.1634 6.78444 17.2992 6.83364C13.4292 7.35364 12.4592 5.45364 9.17918 2.26364C5.89918 -0.926357 1.99918 2.52364 3.80918 5.97364" stroke="white" stroke-width="1.3" stroke-linecap="round" stroke-linejoin="round"/>
<path d="M2 7.40361L7.22 4.82361L9.2 9.60361L11.97 15.3036L9.42 16.9536L5.61 12.2136L2 7.40361Z" stroke="white" stroke-width="1.3" stroke-linecap="round" stroke-linejoin="round"/>
<path d="M11.2751 15.5762L10.0107 16.3062L11.1857 18.3413L12.4501 17.6113L11.2751 15.5762Z" fill="#FF0000" stroke="white" stroke-miterlimit="10"/>
<path d="M11.7998 17.8036C11.7998 17.8036 12.2398 18.5336 12.4998 18.3836C13.2798 17.9236 15.6398 14.9136 16.3998 15.7436C17.6598 17.1236 12.9198 19.9636 13.3998 20.6036C14.5098 21.9636 15.5298 20.9036 16.3998 19.9136C17.2698 18.9236 20.2098 14.7636 21.2698 15.9136C22.3298 17.0636 16.9298 21.2036 17.8098 21.9136C18.6898 22.6236 20.0698 22.5236 21.7298 20.7036" stroke="white" stroke-miterlimit="10" stroke-linecap="round"/>
</svg>
